<svg xmlns="http://www.w3.org/2000/svg" viewBox="0 0 314.26 186.74"><defs><style>.cls-1{isolation:isolate;}.cls-2{fill:#d0d0d0;}.cls-3{fill:#bdbfc1;}.cls-4{fill:#ccc;}.cls-23,.cls-4{mix-blend-mode:multiply;}.cls-5{fill:#221f20;}.cls-6{fill:#f2f2f2;}.cls-7{fill:#4e4e50;}.cls-8{fill:#141414;}.cls-23,.cls-9{fill:#e7e7e7;}.cls-10{fill:#d1d2d3;}.cls-11{fill:#bbbdbf;}.cls-12,.cls-21{fill:#fff;}.cls-13{fill:#af3135;}.cls-14{fill:#f9dc4d;}.cls-15{fill:#5faf57;}.cls-16{fill:#6fbcd9;}.cls-17{fill:#818184;}.cls-18{fill:#3b4652;}.cls-19{fill:#dc685e;}.cls-20{fill:#eeb249;}.cls-21{opacity:0.1;}.cls-22{opacity:0.5;}.cls-24{fill:#414142;}.cls-25{fill:#464648;}.cls-26{fill:#595a5c;}.cls-27{fill:#27275d;}.cls-28{fill:#2d3d8a;}.cls-29{fill:#383838;}.cls-30{fill:#929496;}.cls-31{fill:#0f0f0f;}.cls-32{fill:#6e6f71;}.cls-33{fill:#98c256;}.cls-34{fill:#68b9a8;}</style></defs><title>consegna</title><g class="cls-1"><g id="Responsive"><polygon class="cls-2" points="191.35 172.19 191.35 170.68 191.24 170.68 191.24 162.84 191.24 155.01 170.91 155.01 150.57 155.01 150.57 162.84 150.57 170.68 150.46 170.68 150.46 172.19 139.82 180.29 201.99 180.29 191.35 172.19"/><path class="cls-3" d="M643.4,553.11v-2c0-2.8-3.3-5.07-7.37-5.07H563.26c-4.07,0-7.37,2.27-7.37,5.07v2Z" transform="translate(-430.58 -366.37)"/><polygon class="cls-4" points="191.24 159.13 191.24 155.01 170.91 155.01 150.57 155.01 150.57 159.13 191.24 159.13"/><path class="cls-5" d="M700.93,366.37H486.51a5.22,5.22,0,0,0-5.22,5.22V516.24a5.22,5.22,0,0,0,5.22,5.22H700.93a5.22,5.22,0,0,0,5.22-5.22V371.59A5.22,5.22,0,0,0,700.93,366.37Z" transform="translate(-430.58 -366.37)"/><rect class="cls-6" x="59.32" y="8.61" width="207.65" height="117.92"/><path class="cls-7" d="M481.75,501V371.59a4.76,4.76,0,0,1,4.76-4.76H700.93a4.76,4.76,0,0,1,4.76,4.76V501h.46V371.59a5.22,5.22,0,0,0-5.22-5.22H486.51a5.22,5.22,0,0,0-5.22,5.22V501Z" transform="translate(-430.58 -366.37)"/><path class="cls-8" d="M481.75,501V371.59a4.71,4.71,0,0,1,1.4-3.37l-.33-.32a5.16,5.16,0,0,0-1.53,3.69V501Z" transform="translate(-430.58 -366.37)"/><path class="cls-9" d="M481.29,501v15.2a5.22,5.22,0,0,0,5.22,5.22H700.93a5.22,5.22,0,0,0,5.22-5.22V501Z" transform="translate(-430.58 -366.37)"/><path class="cls-6" d="M706.15,501H481.29l.37.37H705.78v14.83a4.83,4.83,0,0,1-1.42,3.43l.26.26a5.17,5.17,0,0,0,1.53-3.69Z" transform="translate(-430.58 -366.37)"/><path class="cls-10" d="M700.93,521.09H486.51a4.85,4.85,0,0,1-4.85-4.85V501.41l-.37-.37v15.2a5.22,5.22,0,0,0,5.22,5.22H700.93a5.22,5.22,0,0,0,3.69-1.53l-.26-.26A4.87,4.87,0,0,1,700.93,521.09Z" transform="translate(-430.58 -366.37)"/><rect class="cls-11" x="59.32" y="8.61" width="207.65" height="3.5"/><rect class="cls-12" x="126.18" y="9.36" width="73.91" height="1.99" rx="0.27"/><path class="cls-13" d="M493.15,376.72a.72.72,0,1,1-.72-.72A.73.73,0,0,1,493.15,376.72Z" transform="translate(-430.58 -366.37)"/><path class="cls-14" d="M495.55,376.72a.72.72,0,1,1-.72-.72A.73.73,0,0,1,495.55,376.72Z" transform="translate(-430.58 -366.37)"/><path class="cls-15" d="M498,376.72a.73.73,0,1,1-.73-.72A.73.73,0,0,1,498,376.72Z" transform="translate(-430.58 -366.37)"/><rect class="cls-6" x="68.77" y="9.36" width="2.59" height="1.99" rx="0.27"/><rect class="cls-6" x="71.61" y="9.36" width="2.59" height="1.99" rx="0.27"/><rect class="cls-6" x="75" y="9.36" width="3.28" height="1.99" rx="0.27"/><rect class="cls-6" x="261.87" y="9.36" width="3.28" height="1.99" rx="0.27"/><rect class="cls-6" x="258.04" y="9.36" width="3.28" height="1.99" rx="0.27"/><rect class="cls-6" x="254.2" y="9.36" width="3.28" height="1.99" rx="0.27"/><rect class="cls-16" x="59.32" y="12.11" width="207.65" height="41.45"/><rect class="cls-12" x="59.32" y="12.11" width="207.65" height="5.36"/><rect class="cls-17" x="93.75" y="14.33" width="39.37" height="0.9"/><rect class="cls-18" x="150.1" y="62.45" width="73.21" height="0.9"/><rect class="cls-18" x="150.1" y="66.07" width="73.21" height="0.9"/><rect class="cls-18" x="150.1" y="69.69" width="73.21" height="0.9"/><rect class="cls-18" x="150.1" y="73.31" width="73.21" height="0.9"/><rect class="cls-18" x="150.1" y="76.92" width="73.21" height="0.9"/><rect class="cls-18" x="150.1" y="80.54" width="73.21" height="0.9"/><rect class="cls-18" x="150.1" y="84.16" width="73.21" height="0.9"/><rect class="cls-18" x="150.1" y="87.78" width="73.21" height="0.9"/><rect class="cls-18" x="150.1" y="95.02" width="73.21" height="0.9"/><rect class="cls-18" x="150.1" y="102.26" width="73.21" height="0.9"/><rect class="cls-18" x="150.1" y="109.49" width="73.21" height="0.91"/><rect class="cls-18" x="150.1" y="116.73" width="73.21" height="0.9"/><rect class="cls-18" x="150.1" y="113.11" width="73.21" height="0.9"/><rect class="cls-18" x="150.1" y="105.87" width="73.21" height="0.9"/><rect class="cls-18" x="150.1" y="98.64" width="73.21" height="0.9"/><rect class="cls-18" x="150.1" y="91.4" width="73.21" height="0.9"/><rect class="cls-19" x="75.75" y="62.45" width="66.63" height="55.19"/><rect class="cls-20" x="230.26" y="62.45" width="16.02" height="43.42"/><rect class="cls-16" x="230.26" y="109.49" width="16.02" height="8.15"/><path class="cls-21" d="M706.15,371.59a5.22,5.22,0,0,0-5.22-5.22H593L688.51,501h17.64Z" transform="translate(-430.58 -366.37)"/><g class="cls-22"><rect class="cls-6" x="71.33" y="28.64" width="53.97" height="2.82"/><rect class="cls-6" x="71.33" y="33.48" width="53.97" height="2.82"/><rect class="cls-6" x="71.33" y="38.33" width="53.97" height="2.82"/><rect class="cls-6" x="71.33" y="43.18" width="34.17" height="2.82"/><rect class="cls-6" x="138.79" y="28.64" width="53.97" height="2.82"/><rect class="cls-6" x="138.79" y="33.48" width="53.97" height="2.82"/><rect class="cls-6" x="138.79" y="38.33" width="53.97" height="2.82"/><rect class="cls-6" x="138.79" y="43.18" width="34.17" height="2.82"/><rect class="cls-6" x="206.25" y="28.64" width="53.97" height="2.82"/><rect class="cls-6" x="206.25" y="33.48" width="53.97" height="2.82"/><rect class="cls-6" x="206.25" y="38.33" width="53.97" height="2.82"/><rect class="cls-6" x="206.25" y="43.18" width="34.17" height="2.82"/></g><path class="cls-23" d="M578.46,462.5a3.92,3.92,0,0,0-3.92-3.92H481.29V501h97.17Z" transform="translate(-430.58 -366.37)"/><path class="cls-4" d="M581.33,527.26q0-2.94-.26-5.8h-2.61V501H481.29v20.42h87.63v11.61a15.1,15.1,0,0,1-10,14.2h-3.41v1.19l22.67-1.19A65.51,65.51,0,0,0,581.33,527.26Z" transform="translate(-430.58 -366.37)"/><path class="cls-23" d="M706.15,460.29h-21a4.37,4.37,0,0,0-4.36,4.37V501h25.37Z" transform="translate(-430.58 -366.37)"/><path class="cls-4" d="M680.78,501v20.42h20.15a5.22,5.22,0,0,0,5.22-5.22V501Z" transform="translate(-430.58 -366.37)"/><path class="cls-5" d="M571.18,458.74H449.27a3.76,3.76,0,0,0-3.76,3.76V546a3.76,3.76,0,0,0,3.76,3.76H571.18a3.76,3.76,0,0,0,3.76-3.76V462.5A3.76,3.76,0,0,0,571.18,458.74Z" transform="translate(-430.58 -366.37)"/><path class="cls-9" d="M571.18,458.74H449.27a3.76,3.76,0,0,0-3.76,3.76V546a3.76,3.76,0,0,0,3.76,3.76H571.18a3.76,3.76,0,0,0,3.76-3.76V462.5A3.76,3.76,0,0,0,571.18,458.74ZM574.61,546a3.44,3.44,0,0,1-3.43,3.43H449.27a3.43,3.43,0,0,1-3.42-3.43V462.5a3.43,3.43,0,0,1,3.42-3.43H571.18a3.44,3.44,0,0,1,3.43,3.43Z" transform="translate(-430.58 -366.37)"/><rect class="cls-6" x="21.13" y="98.57" width="117.03" height="74.93"/><path class="cls-7" d="M571.18,459.07H449.27a3.43,3.43,0,0,0-3.42,3.43V546a3.43,3.43,0,0,0,3.42,3.43H571.18a3.44,3.44,0,0,0,3.43-3.43V462.5A3.44,3.44,0,0,0,571.18,459.07Zm3,86.89a3,3,0,0,1-3,3H449.27a3,3,0,0,1-3-3V462.5a3,3,0,0,1,3-3H571.18a3,3,0,0,1,3,3Z" transform="translate(-430.58 -366.37)"/><path class="cls-11" d="M571.18,549.39H449.27a3.43,3.43,0,0,1-3.42-3.43V462.5a3.4,3.4,0,0,1,1-2.42l-.23-.24a3.72,3.72,0,0,0-1.11,2.66V546a3.76,3.76,0,0,0,3.76,3.76H571.18a3.71,3.71,0,0,0,2.65-1.1l-.23-.24A3.43,3.43,0,0,1,571.18,549.39Z" transform="translate(-430.58 -366.37)"/><path class="cls-8" d="M571.18,548.94H449.27a3,3,0,0,1-3-3V462.5a3,3,0,0,1,.87-2.11l-.31-.31a3.4,3.4,0,0,0-1,2.42V546a3.43,3.43,0,0,0,3.42,3.43H571.18a3.43,3.43,0,0,0,2.42-1l-.31-.31A3,3,0,0,1,571.18,548.94Z" transform="translate(-430.58 -366.37)"/><path class="cls-24" d="M509.5,462.23a.73.73,0,0,1,.73-.73.73.73,0,1,1-.73.73Z" transform="translate(-430.58 -366.37)"/><path class="cls-25" d="M509.76,462.23a.47.47,0,1,1,.47.46A.47.47,0,0,1,509.76,462.23Z" transform="translate(-430.58 -366.37)"/><path class="cls-26" d="M510.23,463a.77.77,0,0,0,0-1.53.77.77,0,1,0,0,1.53Zm0-1.43a.67.67,0,1,1-.67.67A.67.67,0,0,1,510.23,461.56Z" transform="translate(-430.58 -366.37)"/><path class="cls-27" d="M510.54,462.23a.32.32,0,0,1-.63,0,.32.32,0,1,1,.63,0Z" transform="translate(-430.58 -366.37)"/><path class="cls-28" d="M510.45,462.45a.31.31,0,0,1-.45,0,.33.33,0,0,1,0-.45Z" transform="translate(-430.58 -366.37)"/><path class="cls-5" d="M510.34,462.23a.11.11,0,0,1-.11.11.11.11,0,0,1-.12-.11.12.12,0,0,1,.12-.12A.11.11,0,0,1,510.34,462.23Z" transform="translate(-430.58 -366.37)"/><path class="cls-29" d="M510.7,461.75a.68.68,0,0,1,0,.95l.06.06a.76.76,0,0,0-1.07-1.07l.06.06A.68.68,0,0,1,510.7,461.75Z" transform="translate(-430.58 -366.37)"/><rect class="cls-18" x="21.13" y="98.57" width="117.03" height="23.36"/><rect class="cls-18" x="73.45" y="125.81" width="48.13" height="0.72"/><rect class="cls-18" x="73.45" y="128.68" width="48.13" height="0.72"/><rect class="cls-18" x="73.45" y="131.56" width="48.13" height="0.71"/><rect class="cls-18" x="73.45" y="134.43" width="48.13" height="0.72"/><rect class="cls-18" x="73.45" y="137.3" width="48.13" height="0.72"/><rect class="cls-18" x="73.45" y="140.17" width="48.13" height="0.72"/><rect class="cls-18" x="73.45" y="143.05" width="48.13" height="0.72"/><rect class="cls-18" x="73.45" y="145.92" width="48.13" height="0.72"/><rect class="cls-18" x="73.45" y="151.66" width="48.13" height="0.72"/><rect class="cls-18" x="73.45" y="157.41" width="48.13" height="0.72"/><rect class="cls-18" x="73.45" y="163.15" width="48.13" height="0.71"/><rect class="cls-18" x="73.45" y="168.9" width="48.13" height="0.72"/><rect class="cls-18" x="73.45" y="166.02" width="48.13" height="0.72"/><rect class="cls-18" x="73.45" y="160.28" width="48.13" height="0.72"/><rect class="cls-18" x="73.45" y="154.53" width="48.13" height="0.72"/><rect class="cls-18" x="73.45" y="148.79" width="48.13" height="0.72"/><rect class="cls-16" x="24.57" y="125.81" width="43.81" height="43.81"/><rect class="cls-19" x="124.2" y="125.81" width="10.53" height="34.47"/><rect class="cls-20" x="124.2" y="163.15" width="10.53" height="6.46"/><rect class="cls-11" x="21.13" y="98.57" width="117.03" height="2.57"/><rect class="cls-12" x="57.32" y="99.12" width="44.66" height="1.46" rx="0.2"/><path class="cls-13" d="M454.1,466.22a.53.53,0,1,1-.53-.53A.53.53,0,0,1,454.1,466.22Z" transform="translate(-430.58 -366.37)"/><path class="cls-14" d="M455.86,466.22a.53.53,0,1,1-.53-.53A.53.53,0,0,1,455.86,466.22Z" transform="translate(-430.58 -366.37)"/><path class="cls-15" d="M457.62,466.22a.53.53,0,1,1-.53-.53A.53.53,0,0,1,457.62,466.22Z" transform="translate(-430.58 -366.37)"/><rect class="cls-6" x="28.07" y="99.12" width="1.91" height="1.46" rx="0.2"/><rect class="cls-6" x="30.15" y="99.12" width="1.9" height="1.46" rx="0.2"/><rect class="cls-6" x="32.64" y="99.12" width="2.41" height="1.46" rx="0.2"/><rect class="cls-6" x="134.42" y="99.12" width="2.41" height="1.46" rx="0.2"/><path class="cls-6" d="M564.6,466.75a.2.2,0,0,1-.2.2h-2a.2.2,0,0,1-.2-.2v-1.06a.2.2,0,0,1,.2-.2h2a.2.2,0,0,1,.2.2Z" transform="translate(-430.58 -366.37)"/><rect class="cls-6" x="128.8" y="99.12" width="2.41" height="1.46" rx="0.2"/><g class="cls-22"><rect class="cls-6" x="26.54" y="106.52" width="30.19" height="1.58"/><rect class="cls-6" x="26.54" y="109.23" width="30.19" height="1.58"/><rect class="cls-6" x="26.54" y="111.95" width="30.19" height="1.58"/><rect class="cls-6" x="26.54" y="114.66" width="19.12" height="1.58"/><rect class="cls-6" x="64.28" y="106.52" width="30.2" height="1.58"/><rect class="cls-6" x="64.28" y="109.23" width="30.2" height="1.58"/><rect class="cls-6" x="64.28" y="111.95" width="30.2" height="1.58"/><rect class="cls-6" x="64.28" y="114.66" width="19.12" height="1.58"/><rect class="cls-6" x="102.03" y="106.52" width="30.19" height="1.58"/><rect class="cls-6" x="102.03" y="109.23" width="30.19" height="1.58"/><rect class="cls-6" x="102.03" y="111.95" width="30.19" height="1.58"/><rect class="cls-6" x="102.03" y="114.66" width="19.12" height="1.58"/></g><path class="cls-21" d="M575.1,546V462.5a3.91,3.91,0,0,0-3.92-3.92H510l63.25,89.49.66.66A3.91,3.91,0,0,0,575.1,546Z" transform="translate(-430.58 -366.37)"/><path class="cls-10" d="M430.71,547.5v1a15.74,15.74,0,0,0,7.67,2H582.07a15.74,15.74,0,0,0,7.67-2v-1Z" transform="translate(-430.58 -366.37)"/><path class="cls-11" d="M433.26,549.62a15.76,15.76,0,0,0,5.12.85H582.07a15.76,15.76,0,0,0,5.12-.85Z" transform="translate(-430.58 -366.37)"/><rect class="cls-11" x="0.13" y="181.14" width="159.04" height="0.99"/><rect class="cls-9" y="178.92" width="159.29" height="3.11"/><rect class="cls-12" x="157.76" y="178.92" width="1.02" height="3.11"/><rect class="cls-11" x="158.27" y="178.92" width="1.02" height="3.11"/><rect class="cls-10" x="152.43" y="178.92" width="4.39" height="3.11"/><rect class="cls-11" x="153.07" y="178.92" width="2.74" height="3.11"/><rect class="cls-30" x="158.97" y="178.92" width="0.32" height="3.11"/><rect class="cls-12" x="0.51" y="178.92" width="1.02" height="3.11"/><rect class="cls-11" y="178.92" width="1.02" height="3.11"/><rect class="cls-10" x="2.48" y="178.92" width="4.39" height="3.11"/><rect class="cls-11" x="3.49" y="178.92" width="2.74" height="3.11"/><rect class="cls-30" y="178.92" width="0.32" height="3.11"/><path class="cls-10" d="M501,547.07h18.62a1.78,1.78,0,0,0,1.78-1.78H499.23A1.79,1.79,0,0,0,501,547.07Z" transform="translate(-430.58 -366.37)"/><path class="cls-11" d="M500.6,545.29h-1.37a1.79,1.79,0,0,0,1.79,1.78h1.36A1.78,1.78,0,0,1,500.6,545.29Z" transform="translate(-430.58 -366.37)"/><path class="cls-11" d="M520.06,545.29h1.36a1.78,1.78,0,0,1-1.78,1.78h-1.36A1.78,1.78,0,0,0,520.06,545.29Z" transform="translate(-430.58 -366.37)"/><rect class="cls-23" y="178.92" width="159.29" height="0.22"/><path class="cls-30" d="M740.47,460.29h-52a4.37,4.37,0,0,0-4.37,4.37V546.1a4.37,4.37,0,0,0,4.37,4.37h52a4.37,4.37,0,0,0,4.37-4.37V464.66A4.37,4.37,0,0,0,740.47,460.29Z" transform="translate(-430.58 -366.37)"/><path class="cls-5" d="M740.47,460.48h-52a4.19,4.19,0,0,0-4.19,4.18V546.1a4.19,4.19,0,0,0,4.19,4.18h52a4.18,4.18,0,0,0,4.18-4.18V464.66A4.18,4.18,0,0,0,740.47,460.48Z" transform="translate(-430.58 -366.37)"/><path class="cls-9" d="M740.47,460.48h-52a4.19,4.19,0,0,0-4.19,4.18V546.1a4.19,4.19,0,0,0,4.19,4.18h52a4.18,4.18,0,0,0,4.18-4.18V464.66A4.18,4.18,0,0,0,740.47,460.48Zm3.81,85.62a3.82,3.82,0,0,1-3.81,3.82h-52a3.83,3.83,0,0,1-3.82-3.82V464.66a3.82,3.82,0,0,1,3.82-3.81h52a3.82,3.82,0,0,1,3.81,3.81Z" transform="translate(-430.58 -366.37)"/><path class="cls-24" d="M714,465.32a.5.5,0,0,1,.49-.5.51.51,0,0,1,.5.5.5.5,0,0,1-.5.49A.49.49,0,0,1,714,465.32Z" transform="translate(-430.58 -366.37)"/><path class="cls-25" d="M714.18,465.32a.3.3,0,0,1,.3-.3.29.29,0,0,1,.3.3.3.3,0,0,1-.3.3A.31.31,0,0,1,714.18,465.32Z" transform="translate(-430.58 -366.37)"/><path class="cls-26" d="M714.48,465.81a.5.5,0,0,0,.5-.49.51.51,0,0,0-.5-.5.5.5,0,0,0-.49.5A.49.49,0,0,0,714.48,465.81Zm0-.92a.43.43,0,0,1,.43.43.43.43,0,0,1-.43.43.44.44,0,0,1-.43-.43A.43.43,0,0,1,714.48,464.89Z" transform="translate(-430.58 -366.37)"/><path class="cls-27" d="M714.69,465.32a.2.2,0,0,1-.21.2.2.2,0,0,1-.2-.2.2.2,0,0,1,.2-.21A.21.21,0,0,1,714.69,465.32Z" transform="translate(-430.58 -366.37)"/><path class="cls-28" d="M714.63,465.46a.21.21,0,0,1-.29-.29Z" transform="translate(-430.58 -366.37)"/><circle class="cls-5" cx="283.9" cy="98.95" r="0.08"/><path class="cls-29" d="M714.79,465a.43.43,0,0,1,0,.61l0,0a.49.49,0,0,0,0-.69.5.5,0,0,0-.7,0l0,0A.43.43,0,0,1,714.79,465Z" transform="translate(-430.58 -366.37)"/><path class="cls-7" d="M740.47,460.85h-52a3.82,3.82,0,0,0-3.82,3.81V546.1a3.83,3.83,0,0,0,3.82,3.82h52a3.82,3.82,0,0,0,3.81-3.82V464.66A3.82,3.82,0,0,0,740.47,460.85Zm3.32,85.25a3.32,3.32,0,0,1-3.32,3.32h-52a3.33,3.33,0,0,1-3.33-3.32V464.66a3.33,3.33,0,0,1,3.33-3.32h52a3.32,3.32,0,0,1,3.32,3.32Z" transform="translate(-430.58 -366.37)"/><path class="cls-11" d="M740.47,549.92h-52a3.83,3.83,0,0,1-3.82-3.82V464.66A3.79,3.79,0,0,1,685.8,462l-.26-.27a4.18,4.18,0,0,0-1.23,3V546.1a4.19,4.19,0,0,0,4.19,4.18h52a4.21,4.21,0,0,0,3-1.22l-.27-.26A3.79,3.79,0,0,1,740.47,549.92Z" transform="translate(-430.58 -366.37)"/><path class="cls-8" d="M740.47,549.42h-52a3.33,3.33,0,0,1-3.33-3.32V464.66a3.34,3.34,0,0,1,1-2.35l-.35-.34a3.79,3.79,0,0,0-1.12,2.69V546.1a3.83,3.83,0,0,0,3.82,3.82h52a3.79,3.79,0,0,0,2.69-1.12l-.34-.35A3.34,3.34,0,0,1,740.47,549.42Z" transform="translate(-430.58 -366.37)"/><path class="cls-5" d="M713,546.86a2.09,2.09,0,1,1,3,0A2.09,2.09,0,0,1,713,546.86Z" transform="translate(-430.58 -366.37)"/><path class="cls-24" d="M716,546.86a2.09,2.09,0,1,0-3,0A2.09,2.09,0,0,0,716,546.86Zm-2.78-2.78a1.85,1.85,0,1,1,0,2.61A1.85,1.85,0,0,1,713.18,544.08Z" transform="translate(-430.58 -366.37)"/><path class="cls-31" d="M715.79,544.08a1.85,1.85,0,0,1,0,2.61l.17.17a2.09,2.09,0,0,0-3-3l.17.18A1.85,1.85,0,0,1,715.79,544.08Z" transform="translate(-430.58 -366.37)"/><path class="cls-32" d="M716,543.88a2.11,2.11,0,0,0-1.5-.62,2.12,2.12,0,0,0-1.5,3.62,2.12,2.12,0,0,0,3,0,2.12,2.12,0,0,0,0-3Zm0,3a2.06,2.06,0,0,1-2.91,0,2.05,2.05,0,0,1,0-2.92,2.06,2.06,0,0,1,2.91,0,2.08,2.08,0,0,1,0,2.92Z" transform="translate(-430.58 -366.37)"/><rect class="cls-6" x="256.86" y="102.93" width="54.09" height="72.05"/><rect class="cls-20" x="256.86" y="102.93" width="54.09" height="20.78"/><g class="cls-22"><rect class="cls-6" x="262.94" y="110.5" width="19.33" height="1.62"/><rect class="cls-6" x="262.94" y="113.29" width="19.33" height="1.62"/><rect class="cls-6" x="262.94" y="116.07" width="19.33" height="1.62"/><rect class="cls-6" x="262.94" y="118.86" width="12.23" height="1.62"/><rect class="cls-6" x="287.1" y="110.5" width="19.32" height="1.62"/><rect class="cls-6" x="287.1" y="113.29" width="19.32" height="1.62"/><rect class="cls-6" x="287.1" y="116.07" width="19.32" height="1.62"/><rect class="cls-6" x="287.1" y="118.86" width="12.24" height="1.62"/></g><rect class="cls-18" x="262" y="160.18" width="43.81" height="0.72"/><rect class="cls-18" x="262" y="163.06" width="43.81" height="0.72"/><rect class="cls-18" x="262" y="165.93" width="43.81" height="0.72"/><rect class="cls-18" x="262" y="168.8" width="43.81" height="0.72"/><rect class="cls-18" x="262" y="171.67" width="43.81" height="0.72"/><rect class="cls-16" x="262" y="126.93" width="43.81" height="30.88"/><rect class="cls-6" x="256.86" y="102.93" width="54.09" height="4.58"/><path class="cls-5" d="M688.4,469.91a.26.26,0,1,1-.26-.26A.26.26,0,0,1,688.4,469.91Z" transform="translate(-430.58 -366.37)"/><path class="cls-5" d="M689.07,469.91a.26.26,0,0,1-.26.26.26.26,0,0,1,0-.52A.26.26,0,0,1,689.07,469.91Z" transform="translate(-430.58 -366.37)"/><path class="cls-5" d="M689.75,469.91a.27.27,0,0,1-.27.26.26.26,0,0,1,0-.52A.27.27,0,0,1,689.75,469.91Z" transform="translate(-430.58 -366.37)"/><path class="cls-5" d="M690.42,469.91a.26.26,0,1,1-.26-.26A.26.26,0,0,1,690.42,469.91Z" transform="translate(-430.58 -366.37)"/><path class="cls-5" d="M740.68,469.62l0,0h-1.4l0,0v.68h1.46v-.68Zm-1.4.06h1.33v.56h-1.33Z" transform="translate(-430.58 -366.37)"/><path class="cls-33" d="M739.36,469.76h1.17v.39h-1.17Z" transform="translate(-430.58 -366.37)"/><rect class="cls-10" x="271.16" y="104.48" width="25.5" height="1.94" rx="0.2"/><rect class="cls-12" x="307.21" y="108.97" width="1.96" height="0.39"/><rect class="cls-12" x="307.21" y="109.75" width="1.96" height="0.39"/><rect class="cls-12" x="307.21" y="110.54" width="1.96" height="0.39"/><path class="cls-21" d="M744.84,546.1V464.66a4.37,4.37,0,0,0-4.37-4.37H708.93l33.89,88.16.74.74A4.35,4.35,0,0,0,744.84,546.1Z" transform="translate(-430.58 -366.37)"/><path class="cls-30" d="M674.16,497.28H655a3.93,3.93,0,0,0-3.93,3.93v46.72a3.92,3.92,0,0,0,3.93,3.93h19.19a3.92,3.92,0,0,0,3.93-3.93V501.21A3.93,3.93,0,0,0,674.16,497.28Z" transform="translate(-430.58 -366.37)"/><path class="cls-5" d="M674.16,497.44H655a3.77,3.77,0,0,0-3.77,3.77v46.72A3.77,3.77,0,0,0,655,551.7h19.19a3.77,3.77,0,0,0,3.77-3.77V501.21A3.77,3.77,0,0,0,674.16,497.44Z" transform="translate(-430.58 -366.37)"/><path class="cls-9" d="M674.16,497.44H655a3.77,3.77,0,0,0-3.77,3.77v46.72A3.77,3.77,0,0,0,655,551.7h19.19a3.77,3.77,0,0,0,3.77-3.77V501.21A3.77,3.77,0,0,0,674.16,497.44Zm3.44,50.49a3.45,3.45,0,0,1-3.44,3.44H655a3.44,3.44,0,0,1-3.43-3.44V501.21a3.44,3.44,0,0,1,3.43-3.44h19.19a3.45,3.45,0,0,1,3.44,3.44Z" transform="translate(-430.58 -366.37)"/><path class="cls-24" d="M666.21,500.71h-3.29a.17.17,0,0,0-.17.16.17.17,0,0,0,.17.17h3.29a.17.17,0,0,0,.17-.17A.17.17,0,0,0,666.21,500.71Z" transform="translate(-430.58 -366.37)"/><path class="cls-24" d="M660.13,500.87a.44.44,0,1,1,.44.45A.44.44,0,0,1,660.13,500.87Z" transform="translate(-430.58 -366.37)"/><path class="cls-25" d="M660.3,500.87a.27.27,0,1,1,.27.27A.27.27,0,0,1,660.3,500.87Z" transform="translate(-430.58 -366.37)"/><path class="cls-26" d="M660.57,501.32a.45.45,0,1,0-.44-.45A.45.45,0,0,0,660.57,501.32Zm0-.83a.39.39,0,1,1-.39.38A.39.39,0,0,1,660.57,500.49Z" transform="translate(-430.58 -366.37)"/><path class="cls-27" d="M660.76,500.87a.19.19,0,0,1-.19.19.18.18,0,0,1-.18-.19.18.18,0,0,1,.18-.18A.19.19,0,0,1,660.76,500.87Z" transform="translate(-430.58 -366.37)"/><path class="cls-28" d="M660.7,501a.17.17,0,0,1-.26,0,.19.19,0,0,1,0-.26Z" transform="translate(-430.58 -366.37)"/><path class="cls-5" d="M660.64,500.87a.07.07,0,0,1-.14,0,.07.07,0,0,1,.14,0Z" transform="translate(-430.58 -366.37)"/><path class="cls-29" d="M660.84,500.6a.39.39,0,0,1,0,.55l0,0a.43.43,0,0,0,0-.63.45.45,0,0,0-.63,0l0,0A.39.39,0,0,1,660.84,500.6Z" transform="translate(-430.58 -366.37)"/><path class="cls-7" d="M674.16,497.77H655a3.44,3.44,0,0,0-3.43,3.44v46.72a3.44,3.44,0,0,0,3.43,3.44h19.19a3.45,3.45,0,0,0,3.44-3.44V501.21A3.45,3.45,0,0,0,674.16,497.77Zm3,50.16a3,3,0,0,1-3,3H655a3,3,0,0,1-3-3V501.21a3,3,0,0,1,3-3h19.19a3,3,0,0,1,3,3Z" transform="translate(-430.58 -366.37)"/><path class="cls-11" d="M674.16,551.37H655a3.44,3.44,0,0,1-3.43-3.44V501.21a3.42,3.42,0,0,1,1-2.43l-.23-.24a3.8,3.8,0,0,0-1.11,2.67v46.72A3.77,3.77,0,0,0,655,551.7h19.19a3.76,3.76,0,0,0,2.67-1.11l-.24-.23A3.43,3.43,0,0,1,674.16,551.37Z" transform="translate(-430.58 -366.37)"/><path class="cls-8" d="M674.16,550.92H655a3,3,0,0,1-3-3V501.21a3,3,0,0,1,.88-2.12l-.32-.31a3.42,3.42,0,0,0-1,2.43v46.72a3.44,3.44,0,0,0,3.43,3.44h19.19a3.43,3.43,0,0,0,2.43-1l-.31-.32A3,3,0,0,1,674.16,550.92Z" transform="translate(-430.58 -366.37)"/><circle class="cls-5" cx="233.99" cy="181.95" r="1.88"/><path class="cls-24" d="M665.9,549.65a1.88,1.88,0,1,0-2.66,0A1.9,1.9,0,0,0,665.9,549.65Zm-2.51-2.51a1.66,1.66,0,1,1,0,2.35A1.68,1.68,0,0,1,663.39,547.14Z" transform="translate(-430.58 -366.37)"/><path class="cls-31" d="M665.74,547.14a1.66,1.66,0,0,1,0,2.35l.16.16a1.88,1.88,0,0,0-2.66-2.67l.15.16A1.66,1.66,0,0,1,665.74,547.14Z" transform="translate(-430.58 -366.37)"/><path class="cls-32" d="M665.92,547a1.91,1.91,0,0,0-2.7,0,1.86,1.86,0,0,0-.56,1.34,1.92,1.92,0,0,0,3.26,1.36,2,2,0,0,0,.56-1.36A1.9,1.9,0,0,0,665.92,547Zm0,2.66a1.86,1.86,0,0,1-2.62,0,1.86,1.86,0,0,1,1.31-3.17,1.86,1.86,0,0,1,1.31,3.17Z" transform="translate(-430.58 -366.37)"/><rect class="cls-6" x="222.1" y="137.11" width="23.77" height="42.08"/><rect class="cls-34" x="222.1" y="151.73" width="23.77" height="11.18"/><rect class="cls-18" x="222.1" y="137.11" width="23.77" height="12.7"/><rect class="cls-6" x="222.1" y="137.11" width="23.77" height="3.61"/><path class="cls-5" d="M653.44,504a.21.21,0,1,1-.41,0,.2.2,0,0,1,.21-.2A.2.2,0,0,1,653.44,504Z" transform="translate(-430.58 -366.37)"/><path class="cls-5" d="M654,504a.2.2,0,1,1-.4,0,.2.2,0,0,1,.4,0Z" transform="translate(-430.58 -366.37)"/><path class="cls-5" d="M654.51,504a.22.22,0,0,1-.21.21.21.21,0,0,1-.2-.21.2.2,0,0,1,.2-.2A.21.21,0,0,1,654.51,504Z" transform="translate(-430.58 -366.37)"/><path class="cls-5" d="M655,504a.21.21,0,1,1-.41,0,.2.2,0,0,1,.2-.2A.2.2,0,0,1,655,504Z" transform="translate(-430.58 -366.37)"/><path class="cls-5" d="M675.78,503.73h-1.15v.54h1.15v-.54Zm-1.1,0h1.05v.44h-1.05Z" transform="translate(-430.58 -366.37)"/><path class="cls-33" d="M674.74,503.84h.92v.31h-.92Z" transform="translate(-430.58 -366.37)"/><rect class="cls-10" x="223.91" y="138.34" width="20.13" height="1.53" rx="0.16"/><rect class="cls-12" x="244.05" y="141.2" width="1.36" height="0.27"/><rect class="cls-12" x="244.05" y="141.75" width="1.36" height="0.27"/><rect class="cls-12" x="244.05" y="142.29" width="1.36" height="0.27"/><rect class="cls-18" x="223.28" y="165.39" width="21.29" height="0.31"/><rect class="cls-18" x="223.28" y="166.63" width="21.29" height="0.31"/><rect class="cls-18" x="223.28" y="167.87" width="21.29" height="0.31"/><rect class="cls-18" x="223.28" y="169.11" width="21.29" height="0.31"/><rect class="cls-18" x="223.28" y="170.35" width="21.29" height="0.31"/><rect class="cls-18" x="223.28" y="171.59" width="21.29" height="0.31"/><rect class="cls-18" x="223.28" y="172.83" width="21.29" height="0.31"/><rect class="cls-18" x="223.28" y="174.06" width="21.29" height="0.31"/><rect class="cls-18" x="223.28" y="176.54" width="21.29" height="0.31"/><rect class="cls-18" x="223.28" y="175.3" width="21.29" height="0.31"/><g class="cls-22"><rect class="cls-6" x="224.1" y="142.29" width="19.11" height="1"/><rect class="cls-6" x="224.1" y="144.01" width="19.11" height="1"/><rect class="cls-6" x="224.1" y="145.72" width="19.11" height="1"/><rect class="cls-6" x="224.1" y="147.44" width="12.1" height="1"/></g></g></g></svg>