<svg id="Layer_1" data-name="Layer 1" xmlns="http://www.w3.org/2000/svg" viewBox="0 0 185 108"><defs><style>.cls-1{fill:#fefada;}.cls-2{fill:#a9b0c3;}.cls-3{fill:#fbecb0;}.cls-4{fill:#fae288;}.cls-5{fill:#de9653;}.cls-6{fill:#f7cc6f;}.cls-7{fill:#e1725e;}.cls-8{fill:#edb75a;}.cls-9{fill:#ea9a5a;}.cls-10{fill:#d6e2ea;}.cls-11{fill:#1b3958;}.cls-12{fill:#42545f;}.cls-13{fill:#fff;}.cls-14{fill:#5c717e;}.cls-15{fill:#de5955;}.cls-16{fill:#b3c3d5;}.cls-17{fill:#cfdae3;}.cls-18{fill:#3c4c54;}.cls-19{fill:#ccd5e2;}.cls-20{fill:#e68a7b;}.cls-21{fill:#b5d6f0;}.cls-22{fill:#81b6e0;}.cls-23{fill:#e47b3b;}.cls-24{fill:#d98b3e;}.cls-25{fill:#6c8699;}.cls-26{fill:#5c7687;}</style></defs><title>header</title><path class="cls-1" d="M121.93,35.39a2,2,0,0,1,1.5,1.35,9.31,9.31,0,0,0,.57,1.38,2,2,0,0,1-.1,2l-.54.8a1.23,1.23,0,0,0,.15,1.54h0a1.23,1.23,0,0,0,1.54.15l.8-.54a2,2,0,0,1,2-.1,9.31,9.31,0,0,0,1.38.57,2,2,0,0,1,1.35,1.5l.19,1a1.23,1.23,0,0,0,1.2,1h0a1.23,1.23,0,0,0,1.2-1l.19-1a2,2,0,0,1,1.35-1.5,9.31,9.31,0,0,0,1.38-.57,2,2,0,0,1,2,.1l.8.54a1.23,1.23,0,0,0,1.54-.15h0a1.23,1.23,0,0,0,.15-1.54l-.54-.8a2,2,0,0,1-.1-2,9.31,9.31,0,0,0,.57-1.38,2,2,0,0,1,1.5-1.35l1-.19a1.23,1.23,0,0,0,1-1.2h0a1.23,1.23,0,0,0-1-1.2l-1-.19a2,2,0,0,1-1.5-1.35,9.31,9.31,0,0,0-.57-1.38,2,2,0,0,1,.1-2l.54-.8a1.23,1.23,0,0,0-.15-1.54h0a1.23,1.23,0,0,0-1.54-.15l-.8.54a2,2,0,0,1-2,.1,9.31,9.31,0,0,0-1.38-.57,2,2,0,0,1-1.35-1.5L133.2,23a1.23,1.23,0,0,0-1.2-1h0a1.23,1.23,0,0,0-1.2,1l-.19.95a2,2,0,0,1-1.35,1.5,9.31,9.31,0,0,0-1.38.57,2,2,0,0,1-2-.1l-.8-.54a1.23,1.23,0,0,0-1.54.15h0a1.23,1.23,0,0,0-.15,1.54l.54.8a2,2,0,0,1,.1,2,9.31,9.31,0,0,0-.57,1.38,2,2,0,0,1-1.5,1.35l-1,.19a1.23,1.23,0,0,0-1,1.2h0a1.23,1.23,0,0,0,1,1.2ZM132,29a5,5,0,1,1-5,5A5,5,0,0,1,132,29Z" transform="translate(-7)"/><path class="cls-2" d="M132,47a2.24,2.24,0,0,1-2.18-1.78l-.19-.95a1,1,0,0,0-.67-.75,10.36,10.36,0,0,1-1.54-.63,1,1,0,0,0-1,0l-.8.53a2.22,2.22,0,0,1-3.08-3.08l.53-.8a1,1,0,0,0,0-1,10.7,10.7,0,0,1-.63-1.53,1,1,0,0,0-.75-.68l-1-.19a2.22,2.22,0,0,1,0-4.36l1-.19a1,1,0,0,0,.75-.68,10.7,10.7,0,0,1,.63-1.53,1,1,0,0,0,0-1l-.53-.8a2.22,2.22,0,0,1,3.08-3.08l.8.53a1,1,0,0,0,1,.05,11.2,11.2,0,0,1,1.53-.63,1,1,0,0,0,.68-.75l.19-.95a2.22,2.22,0,0,1,4.36,0l.19.95a1,1,0,0,0,.67.75,10.82,10.82,0,0,1,1.54.63,1,1,0,0,0,1-.05l.8-.53a2.22,2.22,0,0,1,3.08,3.08l-.53.8a1,1,0,0,0-.05,1,10.7,10.7,0,0,1,.63,1.53,1,1,0,0,0,.75.68l.95.19a2.22,2.22,0,0,1,0,4.36l-.95.19a1,1,0,0,0-.75.68,10.7,10.7,0,0,1-.63,1.53,1,1,0,0,0,.05,1l.53.8a2.22,2.22,0,0,1-3.08,3.08l-.8-.53a1,1,0,0,0-1,0,10.7,10.7,0,0,1-1.53.63,1,1,0,0,0-.68.75l-.19.95A2.24,2.24,0,0,1,132,47Zm-5-6.23a3,3,0,0,1,1.39.34,8.72,8.72,0,0,0,1.22.51,3,3,0,0,1,2,2.26l.19.94a.23.23,0,0,0,.44,0l.19-.94a3,3,0,0,1,2-2.27,7.62,7.62,0,0,0,1.22-.5,3,3,0,0,1,3,.16l.8.54a.22.22,0,0,0,.31-.31l-.54-.8a3,3,0,0,1-.16-3,7.62,7.62,0,0,0,.5-1.22,3,3,0,0,1,2.27-2l.94-.18a.22.22,0,0,0,0-.44l-.94-.18a3,3,0,0,1-2.27-2,7.62,7.62,0,0,0-.5-1.22,3,3,0,0,1,.16-3l.54-.8a.22.22,0,0,0-.31-.31l-.8.54a3,3,0,0,1-3,.16,8.72,8.72,0,0,0-1.22-.51,3,3,0,0,1-2-2.26l-.19-.94a.23.23,0,0,0-.44,0l-.19.94a3,3,0,0,1-2,2.27,7.62,7.62,0,0,0-1.22.5,3,3,0,0,1-3-.16l-.8-.54a.22.22,0,0,0-.31.31l.54.8a3,3,0,0,1,.16,3,7.62,7.62,0,0,0-.5,1.22,3,3,0,0,1-2.27,2l-.94.18a.22.22,0,0,0,0,.44l.94.18h0a3,3,0,0,1,2.27,2,7.62,7.62,0,0,0,.5,1.22,3,3,0,0,1-.16,3l-.54.8a.22.22,0,0,0,.31.31l.8-.54A3,3,0,0,1,127,40.77Zm5-.77a6,6,0,1,1,6-6A6,6,0,0,1,132,40Zm0-10a4,4,0,1,0,4,4A4,4,0,0,0,132,30Z" transform="translate(-7)"/><path class="cls-3" d="M142.82,33.78l-.94-.18a3.07,3.07,0,0,1-2.29-2.1,7.86,7.86,0,0,0-.48-1.16,3,3,0,0,1,.16-3l.54-.8a.24.24,0,0,0,0-.28l-2.17,2.17a1,1,0,0,0-.08,1.31,7,7,0,0,1-9.83,9.83,1,1,0,0,0-1.31.08l-2.17,2.17a.24.24,0,0,0,.28,0l.8-.54a3,3,0,0,1,3-.16,9.17,9.17,0,0,0,1.16.49,3,3,0,0,1,2.09,2.28l.19.94a.23.23,0,0,0,.44,0l.19-.94a3,3,0,0,1,2.09-2.29,7.86,7.86,0,0,0,1.16-.48,3,3,0,0,1,3,.16l.8.54a.22.22,0,0,0,.31-.31l-.54-.8a3,3,0,0,1-.16-3,7.86,7.86,0,0,0,.48-1.16,3.07,3.07,0,0,1,2.29-2.1l.94-.18a.22.22,0,0,0,0-.44Z" transform="translate(-7)"/><path class="cls-3" d="M126,34a6,6,0,0,1,6-6,5.94,5.94,0,0,1,4.24,1.76.94.94,0,0,0-.24-1.5A6.64,6.64,0,0,0,132,27a7,7,0,0,0-7,7,6.64,6.64,0,0,0,1.26,4,.94.94,0,0,0,1.5.24A5.94,5.94,0,0,1,126,34Z" transform="translate(-7)"/><path class="cls-4" d="M81,16H62V15H57a1,1,0,0,0,0,2h1a1,1,0,0,1,0,2H54a1,1,0,0,0,0,2h2a1,1,0,0,1,0,2,1,1,0,0,0,0,2h6V24H81a1,1,0,0,0,1-1V17A1,1,0,0,0,81,16Z" transform="translate(-7)"/><circle class="cls-5" cx="184" cy="92" r="1"/><circle class="cls-5" cx="182" cy="101" r="1"/><circle class="cls-6" cx="101" cy="28" r="1"/><circle class="cls-6" cx="9" cy="35" r="1"/><circle class="cls-6" cx="1" cy="65" r="1"/><circle class="cls-6" cx="32" cy="101" r="1"/><circle class="cls-6" cx="107" cy="11" r="1"/><circle class="cls-6" cx="156" cy="20" r="1"/><circle class="cls-7" cx="182" cy="47" r="1"/><circle class="cls-7" cx="172" cy="97" r="1"/><circle class="cls-7" cx="42" cy="32" r="1"/><circle class="cls-7" cx="120" cy="10" r="1"/><circle class="cls-7" cx="105" cy="36" r="1"/><circle class="cls-7" cx="9" cy="53" r="1"/><circle class="cls-7" cx="42" cy="96" r="1"/><path class="cls-8" d="M119,22a3,3,0,1,1,3-3A3,3,0,0,1,119,22Zm0-4a1,1,0,1,0,1,1A1,1,0,0,0,119,18Z" transform="translate(-7)"/><path class="cls-8" d="M67,11a3,3,0,1,1,3-3A3,3,0,0,1,67,11Zm0-4a1,1,0,1,0,1,1A1,1,0,0,0,67,7Z" transform="translate(-7)"/><path class="cls-9" d="M35,35a3,3,0,1,1,3-3A3,3,0,0,1,35,35Zm0-4a1,1,0,1,0,1,1A1,1,0,0,0,35,31Z" transform="translate(-7)"/><path class="cls-9" d="M183,29a3,3,0,1,1,3-3A3,3,0,0,1,183,29Zm0-4a1,1,0,1,0,1,1A1,1,0,0,0,183,25Z" transform="translate(-7)"/><path class="cls-9" d="M151,101a3,3,0,1,1,3-3A3,3,0,0,1,151,101Zm0-4a1,1,0,1,0,1,1A1,1,0,0,0,151,97Z" transform="translate(-7)"/><path class="cls-7" d="M105,11a3,3,0,1,1,3-3A3,3,0,0,1,105,11Zm0-4a1,1,0,1,0,1,1A1,1,0,0,0,105,7Z" transform="translate(-7)"/><path class="cls-8" d="M164.91,33.5l.8-.79a1,1,0,1,0-1.42-1.42l-.79.8-.79-.8a1,1,0,0,0-1.42,1.42l.8.79-.8.79a1,1,0,0,0,0,1.42,1,1,0,0,0,1.42,0l.79-.8.79.8a1,1,0,0,0,1.42,0,1,1,0,0,0,0-1.42Z" transform="translate(-7)"/><path class="cls-7" d="M148.91,15.5l.8-.79a1,1,0,1,0-1.42-1.42l-.79.8-.79-.8a1,1,0,0,0-1.42,1.42l.8.79-.8.79a1,1,0,0,0,0,1.42,1,1,0,0,0,1.42,0l.79-.8.79.8a1,1,0,0,0,1.42,0,1,1,0,0,0,0-1.42Z" transform="translate(-7)"/><path class="cls-8" d="M85.91,2.5l.8-.79A1,1,0,0,0,85.29.29l-.79.8-.79-.8a1,1,0,1,0-1.42,1.42l.8.79-.8.79a1,1,0,0,0,0,1.42,1,1,0,0,0,1.42,0l.79-.8.79.8a1,1,0,0,0,1.42,0,1,1,0,0,0,0-1.42Z" transform="translate(-7)"/><path class="cls-8" d="M29.91,97.5l.8-.79a1,1,0,1,0-1.42-1.42l-.79.8-.79-.8a1,1,0,0,0-1.42,1.42l.8.79-.8.79a1,1,0,0,0,0,1.42,1,1,0,0,0,1.42,0l.79-.8.79.8a1,1,0,0,0,1.42,0,1,1,0,0,0,0-1.42Z" transform="translate(-7)"/><path class="cls-9" d="M44.91,16.5l.8-.79a1,1,0,0,0-1.42-1.42l-.79.8-.79-.8a1,1,0,0,0-1.42,1.42l.8.79-.8.79a1,1,0,0,0,0,1.42,1,1,0,0,0,1.42,0l.79-.8.79.8a1,1,0,0,0,1.42,0,1,1,0,0,0,0-1.42Z" transform="translate(-7)"/><rect class="cls-10" x="60" y="59" width="64" height="48" rx="3"/><path class="cls-11" d="M128,108H70a4,4,0,0,1-4-4V62a4,4,0,0,1,4-4h58a4,4,0,0,1,4,4v42A4,4,0,0,1,128,108ZM70,60a2,2,0,0,0-2,2v42a2,2,0,0,0,2,2h58a2,2,0,0,0,2-2V62a2,2,0,0,0-2-2Z" transform="translate(-7)"/><rect class="cls-12" x="66" y="65" width="52" height="30"/><path class="cls-11" d="M126,97H72a1,1,0,0,1-1-1V64a1,1,0,0,1,1-1h54a1,1,0,0,1,1,1V96A1,1,0,0,1,126,97ZM73,95h52V65H73Z" transform="translate(-7)"/><path class="cls-10" d="M104,101h0a2,2,0,0,1-2,2H96a2,2,0,0,1-2-2H62v3a3,3,0,0,0,3,3h68a3,3,0,0,0,3-3v-3Z" transform="translate(-7)"/><circle class="cls-11" cx="92" cy="99" r="1"/><rect class="cls-13" x="66" y="65" width="13" height="30"/><path class="cls-14" d="M80,70H76a1,1,0,0,1,0-2h4a1,1,0,0,1,0,2Z" transform="translate(-7)"/><path class="cls-13" d="M94,70H90a1,1,0,0,1,0-2h4a1,1,0,0,1,0,2Z" transform="translate(-7)"/><path class="cls-13" d="M94,80H90a1,1,0,0,1,0-2h4a1,1,0,0,1,0,2Z" transform="translate(-7)"/><path class="cls-13" d="M105,73h-3a1,1,0,0,1,0-2h3a1,1,0,0,1,0,2Z" transform="translate(-7)"/><path class="cls-13" d="M114,83h-3a1,1,0,0,1,0-2h3a1,1,0,0,1,0,2Z" transform="translate(-7)"/><path class="cls-13" d="M95,92H92a1,1,0,0,1,0-2h3a1,1,0,0,1,0,2Z" transform="translate(-7)"/><path class="cls-15" d="M107,76h-3a1,1,0,0,1,0-2h3a1,1,0,0,1,0,2Z" transform="translate(-7)"/><path class="cls-15" d="M107,86h-3a1,1,0,0,1,0-2h3a1,1,0,0,1,0,2Z" transform="translate(-7)"/><path class="cls-13" d="M112,73h-4a1,1,0,0,1,0-2h4a1,1,0,0,1,0,2Z" transform="translate(-7)"/><path class="cls-14" d="M80,80H76a1,1,0,0,1,0-2h4a1,1,0,0,1,0,2Z" transform="translate(-7)"/><path class="cls-14" d="M82,73H78a1,1,0,0,1,0-2h4a1,1,0,0,1,0,2Z" transform="translate(-7)"/><path class="cls-6" d="M99,73H92a1,1,0,0,1,0-2h7a1,1,0,0,1,0,2Z" transform="translate(-7)"/><path class="cls-6" d="M105,92H98a1,1,0,0,1,0-2h7a1,1,0,0,1,0,2Z" transform="translate(-7)"/><path class="cls-15" d="M99,89H92a1,1,0,0,1,0-2h7a1,1,0,0,1,0,2Z" transform="translate(-7)"/><path class="cls-6" d="M96,83H92a1,1,0,0,1,0-2h4a1,1,0,0,1,0,2Z" transform="translate(-7)"/><path class="cls-13" d="M101,76H92a1,1,0,0,1,0-2h9a1,1,0,0,1,0,2Z" transform="translate(-7)"/><path class="cls-13" d="M108,83H99a1,1,0,0,1,0-2h9a1,1,0,0,1,0,2Z" transform="translate(-7)"/><path class="cls-13" d="M101,86H92a1,1,0,0,1,0-2h9a1,1,0,0,1,0,2Z" transform="translate(-7)"/><path class="cls-14" d="M81,76H78a1,1,0,0,1,0-2h3a1,1,0,0,1,0,2Z" transform="translate(-7)"/><path class="cls-14" d="M83,83H78a1,1,0,0,1,0-2h5a1,1,0,0,1,0,2Z" transform="translate(-7)"/><path class="cls-14" d="M80,86H78a1,1,0,0,1,0-2h2a1,1,0,0,1,0,2Z" transform="translate(-7)"/><path class="cls-14" d="M82,89H78a1,1,0,0,1,0-2h4a1,1,0,0,1,0,2Z" transform="translate(-7)"/><path class="cls-13" d="M110,89h-8a1,1,0,0,1,0-2h8a1,1,0,0,1,0,2Z" transform="translate(-7)"/><path class="cls-14" d="M81,92H78a1,1,0,0,1,0-2h3a1,1,0,0,1,0,2Z" transform="translate(-7)"/><path class="cls-16" d="M65,106h68a2,2,0,0,0,2-2H63A2,2,0,0,0,65,106Z" transform="translate(-7)"/><path class="cls-16" d="M129,60.28V100h1V62A2,2,0,0,0,129,60.28Z" transform="translate(-7)"/><rect class="cls-17" x="66" y="65" width="13" height="1"/><rect class="cls-18" x="79" y="65" width="39" height="1"/><path class="cls-11" d="M136,100H62a1,1,0,0,0-1,1v3a4,4,0,0,0,4,4h68a4,4,0,0,0,4-4v-3A1,1,0,0,0,136,100Zm-1,4a2,2,0,0,1-2,2H65a2,2,0,0,1-2-2v-2H93.17A3,3,0,0,0,96,104h6a3,3,0,0,0,2.83-2H135Z" transform="translate(-7)"/><path class="cls-10" d="M154,41a5.93,5.93,0,0,0-1.13.11A5.11,5.11,0,0,0,153,40a5,5,0,0,0-9.76-1.45A5,5,0,0,0,136,43s0,.07,0,.1a5.58,5.58,0,0,0-1-.1,5,5,0,0,0,0,10h19a6,6,0,0,0,0-12Z" transform="translate(-7)"/><path class="cls-11" d="M154,54H135a6,6,0,1,1,.08-12A6,6,0,0,1,141,37a6.12,6.12,0,0,1,1.69.25A5.93,5.93,0,0,1,148,34a6,6,0,0,1,6,6,7,7,0,0,1,0,14ZM135,44a4,4,0,0,0,0,8h19a5,5,0,1,0-.95-9.91,1,1,0,0,1-.9-.29,1,1,0,0,1-.26-.91A4.16,4.16,0,0,0,152,40a4,4,0,0,0-4-4,4,4,0,0,0-3.8,2.84,1,1,0,0,1-.57.63,1,1,0,0,1-.84,0A4,4,0,0,0,137,43a.49.49,0,0,1,0,.12,1,1,0,0,1-.36.8,1,1,0,0,1-.84.21A4.45,4.45,0,0,0,135,44Z" transform="translate(-7)"/><path class="cls-16" d="M157,43a5,5,0,0,1-4,8H132.38A4,4,0,0,0,135,52h19a5,5,0,0,0,3-9Z" transform="translate(-7)"/><path class="cls-11" d="M160,48a1,1,0,0,1-1-1,5,5,0,0,0-9.17-2.76,1,1,0,1,1-1.66-1.11A7,7,0,0,1,161,47,1,1,0,0,1,160,48Z" transform="translate(-7)"/><path class="cls-11" d="M145.58,42a1,1,0,0,1-.91-.6A4,4,0,0,0,141,39a1,1,0,0,1,0-2,6,6,0,0,1,5.5,3.6,1,1,0,0,1-.52,1.31A.93.93,0,0,1,145.58,42Z" transform="translate(-7)"/><path class="cls-11" d="M139.59,47a1,1,0,0,1-.92-.6A4,4,0,0,0,135,44a1,1,0,0,1,0-2,6,6,0,0,1,5.5,3.6,1,1,0,0,1-.51,1.32A1.19,1.19,0,0,1,139.59,47Z" transform="translate(-7)"/><path class="cls-11" d="M148,54a4,4,0,0,1-4-4,1,1,0,0,1,2,0,2,2,0,0,0,2,2,1,1,0,0,1,0,2Z" transform="translate(-7)"/><path class="cls-19" d="M143,73h-8a1,1,0,0,1,0-2h8a1,1,0,0,0,1-1V56a1,1,0,0,1,2,0V70A3,3,0,0,1,143,73Z" transform="translate(-7)"/><path class="cls-19" d="M141,69h-6a1,1,0,0,1,0-2h5V57h-1a1,1,0,0,1,0-2h2a1,1,0,0,1,1,1V68A1,1,0,0,1,141,69Z" transform="translate(-7)"/><path class="cls-19" d="M144,77h-9a1,1,0,0,1,0-2h9a4,4,0,0,0,4-4V56a1,1,0,0,1,1-1h2a1,1,0,0,1,0,2h-1V71A6,6,0,0,1,144,77Z" transform="translate(-7)"/><rect class="cls-13" x="17" y="44" width="32" height="26" rx="2"/><path class="cls-2" d="M54,71H26a3,3,0,0,1-3-3V46a3,3,0,0,1,3-3H54a3,3,0,0,1,3,3V68A3,3,0,0,1,54,71ZM26,45a1,1,0,0,0-1,1V68a1,1,0,0,0,1,1H54a1,1,0,0,0,1-1V46a1,1,0,0,0-1-1Z" transform="translate(-7)"/><path class="cls-10" d="M19,44H47a2,2,0,0,1,2,2v4a0,0,0,0,1,0,0H17a0,0,0,0,1,0,0V46A2,2,0,0,1,19,44Z"/><path class="cls-2" d="M56,51H24a1,1,0,0,1-1-1V46a3,3,0,0,1,3-3H54a3,3,0,0,1,3,3v4A1,1,0,0,1,56,51ZM25,49H55V46a1,1,0,0,0-1-1H26a1,1,0,0,0-1,1Z" transform="translate(-7)"/><rect class="cls-13" x="23" y="49" width="32" height="26" rx="2"/><path class="cls-11" d="M60,76H32a3,3,0,0,1-3-3V51a3,3,0,0,1,3-3H60a3,3,0,0,1,3,3V73A3,3,0,0,1,60,76ZM32,50a1,1,0,0,0-1,1V73a1,1,0,0,0,1,1H60a1,1,0,0,0,1-1V51a1,1,0,0,0-1-1Z" transform="translate(-7)"/><path class="cls-10" d="M25,49H53a2,2,0,0,1,2,2v4a0,0,0,0,1,0,0H23a0,0,0,0,1,0,0V51A2,2,0,0,1,25,49Z"/><path class="cls-11" d="M62,56H30a1,1,0,0,1-1-1V51a3,3,0,0,1,3-3H60a3,3,0,0,1,3,3v4A1,1,0,0,1,62,56ZM31,54H61V51a1,1,0,0,0-1-1H32a1,1,0,0,0-1,1Z" transform="translate(-7)"/><path class="cls-11" d="M41,69a1,1,0,0,1-.71-.29l-3-3a1,1,0,0,1,0-1.42l3-3a1,1,0,0,1,1.42,1.42L39.41,65l2.3,2.29a1,1,0,0,1,0,1.42A1,1,0,0,1,41,69Z" transform="translate(-7)"/><path class="cls-11" d="M51,69a1,1,0,0,1-.71-.29,1,1,0,0,1,0-1.42L52.59,65l-2.3-2.29a1,1,0,0,1,1.42-1.42l3,3a1,1,0,0,1,0,1.42l-3,3A1,1,0,0,1,51,69Z" transform="translate(-7)"/><circle class="cls-11" cx="26" cy="52" r="1"/><circle class="cls-11" cx="29" cy="52" r="1"/><circle class="cls-11" cx="32" cy="52" r="1"/><circle class="cls-2" cx="20" cy="47" r="1"/><circle class="cls-2" cx="23" cy="47" r="1"/><circle class="cls-2" cx="26" cy="47" r="1"/><path class="cls-11" d="M44,70a.93.93,0,0,1-.45-.11,1,1,0,0,1-.44-1.34l4-8a1,1,0,0,1,1.78.9l-4,8A1,1,0,0,1,44,70Z" transform="translate(-7)"/><path class="cls-8" d="M61,34a2,2,0,0,0-2,2V52l2.93-2.2a4,4,0,0,1,2.4-.8H81a2,2,0,0,0,2-2V36a2,2,0,0,0-2-2Z" transform="translate(-7)"/><path class="cls-11" d="M59,53a.91.91,0,0,1-.45-.11A1,1,0,0,1,58,52V36a3,3,0,0,1,3-3H81a3,3,0,0,1,3,3V47a3,3,0,0,1-3,3H64.33a3,3,0,0,0-1.8.6L59.6,52.8A1,1,0,0,1,59,53Zm2-18a1,1,0,0,0-1,1V50l1.33-1a5,5,0,0,1,3-1H81a1,1,0,0,0,1-1V36a1,1,0,0,0-1-1Z" transform="translate(-7)"/><path class="cls-11" d="M63.36,41.19a2.69,2.69,0,0,1,2.81-2.87A2.65,2.65,0,0,1,68,39a.55.55,0,0,1,0,.78.54.54,0,0,1-.73,0,1.37,1.37,0,0,0-1.12-.44,1.73,1.73,0,0,0-1.83,1.84,1.77,1.77,0,0,0,1.83,1.91,1.84,1.84,0,0,0,1.24-.52.54.54,0,0,1,.65.85,2.9,2.9,0,0,1-4.7-2.24Z" transform="translate(-7)"/><path class="cls-11" d="M69.1,39.67c.18-1.55,2.52-1.83,3.63-1a.47.47,0,1,1-.52.79c-.59-.38-1.93-.55-2.1.28-.21,1.31,3.26.56,3.21,2.68s-3,2.08-4.1,1.17a.59.59,0,0,1-.12-.78.48.48,0,0,1,.72-.06c.65.45,2.34.78,2.46-.35C72.17,41.23,68.85,41.94,69.1,39.67Z" transform="translate(-7)"/><path class="cls-11" d="M74.14,39.67c.19-1.55,2.53-1.83,3.63-1a.47.47,0,1,1-.51.79c-.59-.38-1.93-.55-2.1.28-.22,1.31,3.26.56,3.21,2.68s-3,2.08-4.11,1.17a.6.6,0,0,1-.11-.78.47.47,0,0,1,.71-.06c.66.45,2.35.78,2.47-.35C77.22,41.23,73.9,41.94,74.14,39.67Z" transform="translate(-7)"/><path class="cls-20" d="M36,90a2,2,0,0,0,2-2V72l-2.93,2.2a4,4,0,0,1-2.4.8H12a2,2,0,0,0-2,2V88a2,2,0,0,0,2,2Z" transform="translate(-7)"/><path class="cls-11" d="M36,91H12a3,3,0,0,1-3-3V77a3,3,0,0,1,3-3H32.67a3,3,0,0,0,1.8-.6l2.93-2.2A1,1,0,0,1,39,72V88A3,3,0,0,1,36,91ZM12,76a1,1,0,0,0-1,1V88a1,1,0,0,0,1,1H36a1,1,0,0,0,1-1V74l-1.33,1a5.08,5.08,0,0,1-3,1Z" transform="translate(-7)"/><path class="cls-11" d="M13.57,84.5V80c0-.29.21-.49.57-.49a.46.46,0,0,1,.48.49v1.75h2.61V80a.52.52,0,0,1,.54-.49.48.48,0,0,1,.5.49V84.5a.5.5,0,0,1-.5.5.53.53,0,0,1-.54-.5V82.75H14.62V84.5a.48.48,0,0,1-.48.5A.51.51,0,0,1,13.57,84.5Z" transform="translate(-7)"/><path class="cls-11" d="M20.89,80.47h-1.4a.52.52,0,1,1,0-1h3.78a.52.52,0,1,1,0,1H21.94v4a.53.53,0,1,1-1.05,0Z" transform="translate(-7)"/><path class="cls-11" d="M25.63,81.49v3a.55.55,0,0,1-.57.55.49.49,0,0,1-.48-.55V80a.54.54,0,0,1,.48-.56.67.67,0,0,1,.5.29l1.76,2.38,1.82-2.47a.52.52,0,0,1,.91.36v4.5a.49.49,0,0,1-.48.55.5.5,0,0,1-.51-.55v-3l-1.33,1.68a.53.53,0,0,1-.91,0Z" transform="translate(-7)"/><path class="cls-11" d="M31.17,80a.49.49,0,0,1,.5-.49.48.48,0,0,1,.47.49v4h2.18a.53.53,0,1,1,0,1H31.67a.48.48,0,0,1-.5-.49Z" transform="translate(-7)"/><path class="cls-11" d="M63,85H48a3,3,0,0,1-3-3V79a1,1,0,0,1,2,0v3a1,1,0,0,0,1,1H63a1,1,0,0,1,0,2Z" transform="translate(-7)"/><rect class="cls-21" x="152" y="80" width="10" height="16" rx="5"/><path class="cls-11" d="M164,97a6,6,0,0,1-6-6V85a6,6,0,0,1,12,0v6A6,6,0,0,1,164,97Zm0-16a4,4,0,0,0-4,4v6a4,4,0,0,0,8,0V85A4,4,0,0,0,164,81Z" transform="translate(-7)"/><path class="cls-22" d="M167,82.38V90a4,4,0,0,1-6.28,3.28A4,4,0,0,0,168,91V85A4,4,0,0,0,167,82.38Z" transform="translate(-7)"/><circle class="cls-11" cx="157" cy="85" r="1"/><path class="cls-11" d="M149,92H135a1,1,0,0,1,0-2h14a3,3,0,0,0,3-3V76.5a6.5,6.5,0,0,1,13,0V80a1,1,0,0,1-2,0V76.5a4.5,4.5,0,0,0-9,0V87A5,5,0,0,1,149,92Z" transform="translate(-7)"/><circle class="cls-23" cx="109" cy="58" r="7"/><path class="cls-11" d="M116,67a9,9,0,1,1,9-9A9,9,0,0,1,116,67Zm0-16a7,7,0,1,0,7,7A7,7,0,0,0,116,51Z" transform="translate(-7)"/><path class="cls-13" d="M115,61a1,1,0,0,1-.71-.29l-2-2a1,1,0,0,1,1.42-1.42l1.29,1.3,3.29-3.3a1,1,0,0,1,1.42,1.42l-4,4A1,1,0,0,1,115,61Z" transform="translate(-7)"/><circle class="cls-11" cx="165" cy="48" r="1"/><circle class="cls-11" cx="168" cy="48" r="1"/><circle class="cls-11" cx="159" cy="48" r="1"/><circle class="cls-11" cx="156" cy="48" r="1"/><circle class="cls-11" cx="162" cy="48" r="1"/><circle class="cls-11" cx="171" cy="51" r="1"/><circle class="cls-11" cx="171" cy="48" r="1"/><circle class="cls-11" cx="171" cy="45" r="1"/><circle class="cls-11" cx="171" cy="42" r="1"/><circle class="cls-11" cx="171" cy="84" r="1"/><circle class="cls-11" cx="171" cy="87" r="1"/><circle class="cls-11" cx="171" cy="81" r="1"/><rect class="cls-8" x="88" y="45" width="6" height="8"/><path class="cls-11" d="M102,55H94a1,1,0,0,1-1-1V44a1,1,0,0,1,1-1h8a1,1,0,0,1,1,1V54A1,1,0,0,1,102,55Zm-7-2h6V45H95Z" transform="translate(-7)"/><path class="cls-10" d="M84,41h3a0,0,0,0,1,0,0v6a0,0,0,0,1,0,0h0a3,3,0,0,1-3-3V41A0,0,0,0,1,84,41Z"/><path class="cls-11" d="M94,48a4,4,0,0,1-4-4V41a1,1,0,0,1,1-1h3a1,1,0,0,1,1,1v6A1,1,0,0,1,94,48Zm-2-6v2a2,2,0,0,0,1,1.73V42Z" transform="translate(-7)"/><path class="cls-10" d="M105,41h0a0,0,0,0,1,0,0v6a0,0,0,0,1,0,0h-3a0,0,0,0,1,0,0V44A3,3,0,0,1,105,41Z" transform="translate(200 88) rotate(-180)"/><path class="cls-11" d="M102,48a1,1,0,0,1-1-1V41a1,1,0,0,1,1-1h3a1,1,0,0,1,1,1v3A4,4,0,0,1,102,48Zm1-6v3.73A2,2,0,0,0,104,44V42Z" transform="translate(-7)"/><rect class="cls-10" x="84" y="38" width="14" height="2"/><path class="cls-11" d="M106,42H90a1,1,0,0,1-1-1V37a1,1,0,0,1,1-1h16a1,1,0,0,1,1,1v4A1,1,0,0,1,106,42ZM91,40h14V38H91Z" transform="translate(-7)"/><path class="cls-11" d="M98,37a1,1,0,0,1-1-1V20a1,1,0,0,1,2,0V36A1,1,0,0,1,98,37Z" transform="translate(-7)"/><path class="cls-11" d="M98,38a2,2,0,0,1-2-2V33a2,2,0,0,1,4,0v3A2,2,0,0,1,98,38Z" transform="translate(-7)"/><rect class="cls-10" x="77" y="19" width="6" height="2"/><path class="cls-11" d="M91,23H83a1,1,0,0,1-1-1V18a1,1,0,0,1,1-1h8a1,1,0,0,1,1,1v4A1,1,0,0,1,91,23Zm-7-2h6V19H84Z" transform="translate(-7)"/><path class="cls-11" d="M81,26H59a1,1,0,0,1,0-2H81a1,1,0,0,0,1-1V17a1,1,0,0,0-1-1H62a1,1,0,0,1,0-2H81a3,3,0,0,1,3,3v6A3,3,0,0,1,81,26Z" transform="translate(-7)"/><rect class="cls-16" x="84" y="39" width="14" height="1"/><path class="cls-6" d="M80,16v5a2,2,0,0,1-2,2H67.41A3.41,3.41,0,0,0,65,24H81a1,1,0,0,0,1-1V17a1,1,0,0,0-1-1Z" transform="translate(-7)"/><circle class="cls-24" cx="91" cy="47" r="1"/><circle class="cls-24" cx="91" cy="51" r="1"/><circle class="cls-24" cx="91" cy="49" r="1"/><rect class="cls-16" x="96" y="42" width="1" height="1"/><rect class="cls-16" x="85" y="42" width="1" height="1"/><rect class="cls-16" x="77" y="20" width="6" height="1"/><circle class="cls-10" cx="87" cy="20" r="3"/><path class="cls-11" d="M94,25a5,5,0,1,1,5-5A5,5,0,0,1,94,25Zm0-8a3,3,0,1,0,3,3A3,3,0,0,0,94,17Z" transform="translate(-7)"/><circle class="cls-11" cx="87" cy="20" r="1"/><path class="cls-25" d="M167.93,67.39a2,2,0,0,1,1.5,1.35,9.31,9.31,0,0,0,.57,1.38,2,2,0,0,1-.1,2l-.54.8a1.23,1.23,0,0,0,.15,1.54h0a1.23,1.23,0,0,0,1.54.15l.8-.54a2,2,0,0,1,2-.1,9.31,9.31,0,0,0,1.38.57,2,2,0,0,1,1.35,1.5l.19,1a1.23,1.23,0,0,0,1.2,1h0a1.23,1.23,0,0,0,1.2-1l.19-1a2,2,0,0,1,1.35-1.5,9.31,9.31,0,0,0,1.38-.57,2,2,0,0,1,2,.1l.8.54a1.23,1.23,0,0,0,1.54-.15h0a1.23,1.23,0,0,0,.15-1.54l-.54-.8a2,2,0,0,1-.1-2,9.31,9.31,0,0,0,.57-1.38,2,2,0,0,1,1.5-1.35l1-.19a1.23,1.23,0,0,0,1-1.2h0a1.23,1.23,0,0,0-1-1.2l-1-.19a2,2,0,0,1-1.5-1.35,9.31,9.31,0,0,0-.57-1.38,2,2,0,0,1,.1-2l.54-.8a1.23,1.23,0,0,0-.15-1.54h0a1.23,1.23,0,0,0-1.54-.15l-.8.54a2,2,0,0,1-2,.1,9.31,9.31,0,0,0-1.38-.57,2,2,0,0,1-1.35-1.5l-.19-1a1.23,1.23,0,0,0-1.2-1h0a1.23,1.23,0,0,0-1.2,1l-.19,1a2,2,0,0,1-1.35,1.5,9.31,9.31,0,0,0-1.38.57,2,2,0,0,1-2-.1l-.8-.54a1.23,1.23,0,0,0-1.54.15h0a1.23,1.23,0,0,0-.15,1.54l.54.8a2,2,0,0,1,.1,2,9.31,9.31,0,0,0-.57,1.38,2,2,0,0,1-1.5,1.35l-1,.19a1.23,1.23,0,0,0-1,1.2h0a1.23,1.23,0,0,0,1,1.2ZM178,61a5,5,0,1,1-5,5A5,5,0,0,1,178,61Z" transform="translate(-7)"/><path class="cls-11" d="M178,79a2.24,2.24,0,0,1-2.18-1.78l-.19-1a1,1,0,0,0-.68-.75,11.2,11.2,0,0,1-1.53-.63,1,1,0,0,0-1,0l-.8.53a2.22,2.22,0,0,1-3.08-3.08l.53-.8a1,1,0,0,0,.05-1,10.7,10.7,0,0,1-.63-1.53,1,1,0,0,0-.75-.68h0l-.95-.19a2.22,2.22,0,0,1,0-4.36l.95-.19a1,1,0,0,0,.75-.68,10.7,10.7,0,0,1,.63-1.53,1,1,0,0,0-.05-1l-.53-.8a2.22,2.22,0,0,1,3.08-3.08l.8.53a1,1,0,0,0,1,0,9.77,9.77,0,0,1,1.54-.63,1,1,0,0,0,.67-.75l.19-.95a2.22,2.22,0,0,1,4.36,0l.19.95a1,1,0,0,0,.68.75,10.06,10.06,0,0,1,1.53.63,1,1,0,0,0,1,0l.8-.53a2.22,2.22,0,0,1,3.08,3.08l-.53.8a1,1,0,0,0-.05,1,10.7,10.7,0,0,1,.63,1.53,1,1,0,0,0,.75.68l.95.19a2.22,2.22,0,0,1,0,4.36l-.95.19a1,1,0,0,0-.75.68,10.7,10.7,0,0,1-.63,1.53,1,1,0,0,0,.05,1l.53.8a2.22,2.22,0,0,1-3.08,3.08l-.8-.53a1,1,0,0,0-1,0,10.82,10.82,0,0,1-1.54.63,1,1,0,0,0-.67.75l-.19,1A2.24,2.24,0,0,1,178,79ZM173,72.77a3,3,0,0,1,1.39.34,7.62,7.62,0,0,0,1.22.5,3,3,0,0,1,2,2.27l.19.94a.23.23,0,0,0,.44,0l.19-.94a3,3,0,0,1,2-2.27,7.62,7.62,0,0,0,1.22-.5,3,3,0,0,1,3,.16l.8.54a.22.22,0,0,0,.31-.31l-.54-.8a3,3,0,0,1-.16-3,7.62,7.62,0,0,0,.5-1.22,3,3,0,0,1,2.27-2l.94-.19a.22.22,0,0,0,0-.44l-.94-.19a3,3,0,0,1-2.27-2,7.62,7.62,0,0,0-.5-1.22,3,3,0,0,1,.16-3l.54-.8a.22.22,0,0,0-.31-.31l-.8.54a3,3,0,0,1-3,.16,8,8,0,0,0-1.22-.5,3,3,0,0,1-2-2.27l-.19-.94a.23.23,0,0,0-.44,0l-.19.94a3,3,0,0,1-2,2.27,8,8,0,0,0-1.22.5,3,3,0,0,1-3-.16l-.8-.54a.22.22,0,0,0-.31.31l.54.8a3,3,0,0,1,.16,3,7.62,7.62,0,0,0-.5,1.22,3,3,0,0,1-2.27,2l-.94.19a.22.22,0,0,0,0,.44l.94.19a3,3,0,0,1,2.27,2,7.62,7.62,0,0,0,.5,1.22,3,3,0,0,1-.16,3l-.54.8a.22.22,0,0,0,.31.31l.8-.54A3,3,0,0,1,173,72.77ZM178,72a6,6,0,1,1,6-6A6,6,0,0,1,178,72Zm0-10a4,4,0,1,0,4,4A4,4,0,0,0,178,62Z" transform="translate(-7)"/><path class="cls-26" d="M188.82,65.78l-.94-.18a3.07,3.07,0,0,1-2.29-2.1,7.86,7.86,0,0,0-.48-1.16,3,3,0,0,1,.16-3l.54-.8a.24.24,0,0,0,0-.28l-2.17,2.17a1,1,0,0,0-.08,1.31,7,7,0,0,1-9.83,9.83,1,1,0,0,0-1.31.08l-2.17,2.17a.24.24,0,0,0,.28,0l.8-.54a3,3,0,0,1,3-.16,9.17,9.17,0,0,0,1.16.49,3,3,0,0,1,2.09,2.28l.19.94a.23.23,0,0,0,.44,0l.19-.94a3,3,0,0,1,2.09-2.29,7.86,7.86,0,0,0,1.16-.48,3,3,0,0,1,3,.16l.8.54a.22.22,0,0,0,.31-.31l-.54-.8a3,3,0,0,1-.16-3,7.86,7.86,0,0,0,.48-1.16,3.07,3.07,0,0,1,2.29-2.1l.94-.18a.22.22,0,0,0,0-.44Z" transform="translate(-7)"/><path class="cls-26" d="M172,66a6,6,0,0,1,6-6,5.94,5.94,0,0,1,4.24,1.76.94.94,0,0,0-.24-1.5A6.64,6.64,0,0,0,178,59a7,7,0,0,0-7,7,6.64,6.64,0,0,0,1.26,4,.94.94,0,0,0,1.5.24A5.94,5.94,0,0,1,172,66Z" transform="translate(-7)"/></svg>