<svg id="Layer_1" data-name="Layer 1" xmlns="http://www.w3.org/2000/svg" viewBox="0 0 1955.63 1414.01"><defs><style>.cls-1{fill:#1c2c42;}.cls-2{fill:#31415b;}.cls-3{fill:#ff494b;}.cls-4{fill:#3abb78;}.cls-5{fill:#f9cc4e;}.cls-6{fill:#f1f2f2;}.cls-7{fill:#111f2d;}.cls-8{fill:#35b8b0;}.cls-9{fill:#1d9e92;}.cls-10,.cls-22{fill:#fff;}.cls-11{fill:#ef2235;}.cls-12{fill:#9f85dc;}.cls-13{fill:#6557b2;}.cls-14{fill:#939598;}.cls-15{fill:#ef3535;}.cls-16{fill:#292d36;}.cls-17{fill:#58595b;}.cls-18{fill:#414042;}.cls-19{fill:#d1d3d4;}.cls-20{fill:#bcbec0;}.cls-21{fill:#102033;}.cls-22{opacity:0.05;}</style></defs><title>sviluppo</title><rect class="cls-1" y="529.6" width="504.87" height="350.32" rx="10.3"/><path class="cls-2" d="M696,604.84H211.77a10.33,10.33,0,0,0-10.3,10.3v21.52H706.34V615.14A10.34,10.34,0,0,0,696,604.84Z" transform="translate(-201.47 -75.24)"/><path class="cls-3" d="M648.28,620.75a7.21,7.21,0,1,1-7.21-7.21A7.21,7.21,0,0,1,648.28,620.75Z" transform="translate(-201.47 -75.24)"/><path class="cls-4" d="M664.37,613.54a7.21,7.21,0,1,0,7.21,7.21A7.21,7.21,0,0,0,664.37,613.54Z" transform="translate(-201.47 -75.24)"/><path class="cls-5" d="M687.67,613.54a7.21,7.21,0,1,0,7.21,7.21A7.21,7.21,0,0,0,687.67,613.54Z" transform="translate(-201.47 -75.24)"/><polygon class="cls-6" points="33.28 852.22 24.39 857.36 24.39 852.22 15.54 857.33 15.54 852.22 12.69 852.22 12.69 864.22 15.54 864.22 15.54 859.11 24.39 864.22 24.39 859.09 33.28 864.22 33.28 852.22"/><polygon class="cls-6" points="88.36 852.22 88.36 857.33 79.51 852.22 79.51 857.36 70.62 852.22 70.62 864.22 79.51 859.09 79.51 864.22 88.36 859.11 88.36 864.22 91.21 864.22 91.21 852.22 88.36 852.22"/><polygon class="cls-6" points="42.52 847.92 63.12 858.22 42.52 868.52 42.52 847.92"/><path class="cls-6" d="M308.28,930.43l8.08-7.28v20.6l-8.08-7.28v0h-4v-6.06Zm9.7-2.32v10.7a5.35,5.35,0,0,0,0-10.7Zm-.21-5v2.21c4.21,1.06,7.27,4.28,7.27,8.09s-3.06,7-7.27,8.09v2.21a10.3,10.3,0,0,0,0-20.6Z" transform="translate(-201.47 -75.24)"/><path class="cls-6" d="M623.63,923.16v20.59h28.88V923.16ZM649,940.67H627.16V926.24H649Z" transform="translate(-201.47 -75.24)"/><path class="cls-6" d="M666.86,923.16h6.72v3.08H670.4v3.4h-3.54Zm24,17.51h-3.18v3.08h6.71v-6.48H690.9Zm-3.18-17.51v3.08h3.18v3.4h3.53v-6.48ZM670.4,937.27h-3.54v6.48h6.72v-3.08H670.4Z" transform="translate(-201.47 -75.24)"/><path class="cls-6" d="M610.36,935.23v-3.55h-3a7.32,7.32,0,0,0-.89-2.09l2.16-2.16-2.51-2.51-2.18,2.18a7.55,7.55,0,0,0-2.07-.86v-3.08h-3.55v3.05a7.74,7.74,0,0,0-2.1.86L594,924.92l-2.51,2.51,2.11,2.11a7.57,7.57,0,0,0-.92,2.14h-3v3.55h2.88a7.48,7.48,0,0,0,.91,2.22l-2,2L594,942l2-2a7.66,7.66,0,0,0,2.24.94v2.83h3.55v-2.86a7.37,7.37,0,0,0,2.21-.94l2,2,2.51-2.51-2.08-2.08a7.79,7.79,0,0,0,.88-2.17ZM600,938a4.42,4.42,0,1,1,4.41-4.42A4.42,4.42,0,0,1,600,938Z" transform="translate(-201.47 -75.24)"/><path class="cls-7" d="M690.55,910.79H219a4.82,4.82,0,0,1-4.81-4.81h0a4.82,4.82,0,0,1,4.81-4.8H690.55a4.82,4.82,0,0,1,4.81,4.8h0A4.82,4.82,0,0,1,690.55,910.79Z" transform="translate(-201.47 -75.24)"/><path class="cls-2" d="M541.1,910.79H219a4.82,4.82,0,0,1-4.81-4.81h0a4.82,4.82,0,0,1,4.81-4.8H541.1a4.81,4.81,0,0,1,4.8,4.8h0A4.82,4.82,0,0,1,541.1,910.79Z" transform="translate(-201.47 -75.24)"/><path class="cls-8" d="M403.72,910.79H219a4.82,4.82,0,0,1-4.81-4.81h0a4.82,4.82,0,0,1,4.81-4.8H403.72a4.81,4.81,0,0,1,4.8,4.8h0A4.82,4.82,0,0,1,403.72,910.79Z" transform="translate(-201.47 -75.24)"/><path class="cls-9" d="M411.88,906a8.93,8.93,0,1,1-8.93-8.93A8.93,8.93,0,0,1,411.88,906Z" transform="translate(-201.47 -75.24)"/><circle class="cls-8" cx="450.35" cy="767.64" r="82.51" transform="matrix(0.27, -0.96, 0.96, 0.27, -611.63, 919.54)"/><polygon class="cls-1" points="221.85 652.67 301.31 692.4 221.85 732.13 221.85 652.67"/><rect class="cls-10" x="1450.76" y="531.38" width="504.87" height="350.32" rx="10.3"/><path class="cls-2" d="M2146.79,606.62H1662.53a10.33,10.33,0,0,0-10.3,10.3v21.52H2157.1V616.92A10.34,10.34,0,0,0,2146.79,606.62Z" transform="translate(-201.47 -75.24)"/><path class="cls-3" d="M2099,622.53a7.22,7.22,0,1,1-7.21-7.22A7.21,7.21,0,0,1,2099,622.53Z" transform="translate(-201.47 -75.24)"/><path class="cls-4" d="M2115.13,615.31a7.22,7.22,0,1,0,7.21,7.22A7.22,7.22,0,0,0,2115.13,615.31Z" transform="translate(-201.47 -75.24)"/><path class="cls-5" d="M2138.43,615.31a7.22,7.22,0,1,0,7.21,7.22A7.21,7.21,0,0,0,2138.43,615.31Z" transform="translate(-201.47 -75.24)"/><rect class="cls-1" x="1450.76" y="562.64" width="504.87" height="31.82"/><rect class="cls-6" x="1563.82" y="568.24" width="348.25" height="20.61" rx="4.12"/><path class="cls-8" d="M1749.38,654a7.67,7.67,0,0,1-7.62,7.44,7.8,7.8,0,0,1-7.63-7.81,7.6,7.6,0,0,1,11.7-6.43l-2.06,2.06,7.84,2.1-2.1-7.84-1.81,1.82a10.28,10.28,0,1,0-5.94,18.71A10.37,10.37,0,0,0,1752,654Z" transform="translate(-201.47 -75.24)"/><polygon class="cls-8" points="1463.67 578.55 1476.07 585.7 1476.07 582.26 1487.35 582.26 1487.35 574.83 1476.07 574.83 1476.07 571.39 1463.67 578.55"/><polygon class="cls-8" points="1521.9 578.54 1509.51 571.39 1509.51 574.83 1498.23 574.83 1498.23 582.26 1509.51 582.26 1509.51 585.7 1521.9 578.54"/><rect class="cls-8" x="1918.65" y="568.24" width="25.53" height="4.49"/><rect class="cls-8" x="1918.65" y="576.3" width="25.53" height="4.49"/><rect class="cls-8" x="1918.65" y="584.36" width="25.53" height="4.49"/><rect class="cls-8" x="1473.61" y="614.79" width="272.62" height="9.62" rx="4.12"/><path class="cls-3" d="M1744.07,800.62a3,3,0,0,1-1.26-.28c-14.36-6.82-35.55-16.54-39.58-17.68-2.84,1.31-13.48,9.77-22.18,17.24a3,3,0,0,1-4.24-.38,3.15,3.15,0,0,1,.38-4.36c21.82-18.75,24.79-18.75,25.91-18.75,2.9,0,22.83,9.13,40,17.24L1781.93,737a3,3,0,0,1,4.66-.34l37.74,41.17,38-49.71a3,3,0,0,1,3-1.11l40.15,9.27,40.22,10.32a3.1,3.1,0,0,1,2.19,3.75,3,3,0,0,1-3.65,2.25l-40.15-10.31-38.22-8.82-39,51a3,3,0,0,1-4.56.21l-37.62-41-38.19,55.63A3,3,0,0,1,1744.07,800.62Z" transform="translate(-201.47 -75.24)"/><path class="cls-11" d="M1686.84,797.26a6.15,6.15,0,1,1-6.14-6.39A6.27,6.27,0,0,1,1686.84,797.26Z" transform="translate(-201.47 -75.24)"/><path class="cls-11" d="M1711.82,779.38a6.15,6.15,0,1,1-6.15-6.39A6.27,6.27,0,0,1,1711.82,779.38Z" transform="translate(-201.47 -75.24)"/><path class="cls-11" d="M1750.26,796.61a6.15,6.15,0,1,1-6.15-6.39A6.28,6.28,0,0,1,1750.26,796.61Z" transform="translate(-201.47 -75.24)"/><path class="cls-11" d="M1790.3,740.62a6.15,6.15,0,1,1-6.15-6.39A6.28,6.28,0,0,1,1790.3,740.62Z" transform="translate(-201.47 -75.24)"/><path class="cls-11" d="M1829.76,779.38a6.15,6.15,0,1,1-6.15-6.39A6.27,6.27,0,0,1,1829.76,779.38Z" transform="translate(-201.47 -75.24)"/><path class="cls-11" d="M1870.48,731.24a6.15,6.15,0,1,1-6.14-6.39A6.27,6.27,0,0,1,1870.48,731.24Z" transform="translate(-201.47 -75.24)"/><path class="cls-11" d="M1949.66,750.37a6.15,6.15,0,1,1-6.15-6.39A6.27,6.27,0,0,1,1949.66,750.37Z" transform="translate(-201.47 -75.24)"/><path class="cls-1" d="M1935.18,840.11H1679.89a4.82,4.82,0,0,1-4.81-4.8h0a4.82,4.82,0,0,1,4.81-4.81h255.29a4.82,4.82,0,0,1,4.8,4.81h0A4.81,4.81,0,0,1,1935.18,840.11Z" transform="translate(-201.47 -75.24)"/><path class="cls-1" d="M1935.18,862.78H1679.89a4.82,4.82,0,0,1-4.81-4.81h0a4.82,4.82,0,0,1,4.81-4.8h255.29a4.81,4.81,0,0,1,4.8,4.8h0A4.82,4.82,0,0,1,1935.18,862.78Z" transform="translate(-201.47 -75.24)"/><path class="cls-1" d="M1935.18,885.45H1679.89a4.82,4.82,0,0,1-4.81-4.81h0a4.82,4.82,0,0,1,4.81-4.81h255.29a4.82,4.82,0,0,1,4.8,4.81h0A4.82,4.82,0,0,1,1935.18,885.45Z" transform="translate(-201.47 -75.24)"/><path class="cls-1" d="M1935.18,908.12H1679.89a4.82,4.82,0,0,1-4.81-4.81h0a4.82,4.82,0,0,1,4.81-4.81h255.29a4.82,4.82,0,0,1,4.8,4.81h0A4.82,4.82,0,0,1,1935.18,908.12Z" transform="translate(-201.47 -75.24)"/><rect class="cls-1" x="1473.61" y="845.93" width="137.48" height="9.62" rx="4.81"/><path class="cls-1" d="M2123.5,700.09H1994a4.83,4.83,0,0,1-4.81-4.81h0a4.83,4.83,0,0,1,4.81-4.81H2123.5a4.82,4.82,0,0,1,4.81,4.81h0A4.82,4.82,0,0,1,2123.5,700.09Z" transform="translate(-201.47 -75.24)"/><path class="cls-1" d="M2123.5,722.76H1994a4.83,4.83,0,0,1-4.81-4.81h0a4.82,4.82,0,0,1,4.81-4.81H2123.5a4.82,4.82,0,0,1,4.81,4.81h0A4.82,4.82,0,0,1,2123.5,722.76Z" transform="translate(-201.47 -75.24)"/><path class="cls-1" d="M2123.5,745.42H1994a4.82,4.82,0,0,1-4.81-4.8h0a4.82,4.82,0,0,1,4.81-4.81H2123.5a4.82,4.82,0,0,1,4.81,4.81h0A4.82,4.82,0,0,1,2123.5,745.42Z" transform="translate(-201.47 -75.24)"/><path class="cls-1" d="M2123.5,768.09H1994a4.82,4.82,0,0,1-4.81-4.81h0a4.82,4.82,0,0,1,4.81-4.8H2123.5a4.82,4.82,0,0,1,4.81,4.8h0A4.82,4.82,0,0,1,2123.5,768.09Z" transform="translate(-201.47 -75.24)"/><path class="cls-1" d="M2056.59,790.76H1994a4.82,4.82,0,0,1-4.81-4.81h0a4.83,4.83,0,0,1,4.81-4.81h62.57a4.82,4.82,0,0,1,4.81,4.81h0A4.82,4.82,0,0,1,2056.59,790.76Z" transform="translate(-201.47 -75.24)"/><path class="cls-12" d="M2105.13,926H2082V819.42a4.12,4.12,0,0,1,4.12-4.12H2101a4.13,4.13,0,0,1,4.12,4.12Z" transform="translate(-201.47 -75.24)"/><path class="cls-12" d="M2012.4,926h-23.19V897.05a4.13,4.13,0,0,1,4.13-4.12h14.94a4.13,4.13,0,0,1,4.12,4.12Z" transform="translate(-201.47 -75.24)"/><path class="cls-12" d="M2058.76,926h-23.18V871.42a4.12,4.12,0,0,1,4.12-4.12h14.94a4.11,4.11,0,0,1,4.12,4.12Z" transform="translate(-201.47 -75.24)"/><path class="cls-13" d="M2035.58,926H2012.4V836.6a4.11,4.11,0,0,1,4.12-4.12h14.94a4.11,4.11,0,0,1,4.12,4.12Z" transform="translate(-201.47 -75.24)"/><path class="cls-13" d="M2082,926h-23.19V849.12a4.13,4.13,0,0,1,4.13-4.12h14.94a4.13,4.13,0,0,1,4.12,4.12Z" transform="translate(-201.47 -75.24)"/><path class="cls-13" d="M2128.31,926h-23.18V866.86a4.12,4.12,0,0,1,4.12-4.13h14.94a4.12,4.12,0,0,1,4.12,4.13Z" transform="translate(-201.47 -75.24)"/><rect class="cls-1" x="333.38" y="5.19" width="504.87" height="350.32" rx="10.3"/><path class="cls-2" d="M1029.41,80.43H545.15a10.33,10.33,0,0,0-10.31,10.3v21.51h504.87V90.73A10.32,10.32,0,0,0,1029.41,80.43Z" transform="translate(-201.47 -75.24)"/><path class="cls-3" d="M981.66,96.33a7.22,7.22,0,1,1-7.22-7.21A7.22,7.22,0,0,1,981.66,96.33Z" transform="translate(-201.47 -75.24)"/><path class="cls-4" d="M997.74,89.12a7.22,7.22,0,1,0,7.22,7.21A7.21,7.21,0,0,0,997.74,89.12Z" transform="translate(-201.47 -75.24)"/><path class="cls-5" d="M1021.05,89.12a7.22,7.22,0,1,0,7.21,7.21A7.21,7.21,0,0,0,1021.05,89.12Z" transform="translate(-201.47 -75.24)"/><rect class="cls-13" x="801.27" y="50.29" width="25.53" height="4.49"/><rect class="cls-13" x="801.27" y="58.35" width="25.53" height="4.49"/><rect class="cls-13" x="801.27" y="66.41" width="25.53" height="4.49"/><rect class="cls-12" x="402.76" y="101.83" width="124.77" height="124.77" rx="4.12"/><path class="cls-13" d="M614.92,301.83H718.3c.15,0,.28,0,.42,0-5.12-30-26.49-52.46-52.11-52.46s-47,22.49-52.11,52.46C614.64,301.8,614.78,301.83,614.92,301.83Z" transform="translate(-201.47 -75.24)"/><circle class="cls-13" cx="666.61" cy="218.16" r="27.1" transform="translate(182.7 784.94) rotate(-84.38)"/><rect class="cls-10" x="538.93" y="101.83" width="230.12" height="39.17" rx="2.06"/><rect class="cls-10" x="538.93" y="153.34" width="230.12" height="39.17" rx="2.06"/><path class="cls-14" d="M755.19,204.42V188.66h2.61l7.86,12.65V188.66h2v15.76h-2.49l-8-12.9v12.9Z" transform="translate(-201.47 -75.24)"/><path class="cls-14" d="M773.42,199.66l-1.75,4.76H769.5l5.87-15.76h2.53l6.17,15.76h-2.13l-1.84-4.76ZM774,198h5.44l-2.16-5.55-.63-2.3-.61,2.3Z" transform="translate(-201.47 -75.24)"/><path class="cls-14" d="M785.79,204.42V188.66H789l4.46,11.15,4.63-11.15h2.85v15.76h-2V191.25l-4.53,11.31h-2L787.83,191v13.45Z" transform="translate(-201.47 -75.24)"/><path class="cls-14" d="M814.94,204.42H803.68V188.66H815l-.59,1.86h-8.7v4.62h7.8V197h-7.8v5.56h9.22Z" transform="translate(-201.47 -75.24)"/><path class="cls-14" d="M758.55,247.51l-.18,2.58,2.4-1,.54,1.48-2.58.75,1.68,2.13-1.3.88-1.36-2.24-1.36,2.24-1.29-.88,1.68-2.13-2.59-.75.55-1.48,2.38,1-.16-2.58Z" transform="translate(-201.47 -75.24)"/><path class="cls-14" d="M766.39,247.51l-.18,2.58,2.4-1,.54,1.48-2.58.75,1.68,2.13-1.29.88-1.36-2.24-1.36,2.24-1.3-.88,1.68-2.13-2.58-.75.54-1.48,2.38,1-.16-2.58Z" transform="translate(-201.47 -75.24)"/><path class="cls-14" d="M774.23,247.51l-.18,2.58,2.4-1,.55,1.48-2.59.75,1.68,2.13-1.29.88-1.36-2.24-1.36,2.24-1.29-.88,1.67-2.13-2.58-.75.54-1.48,2.38,1-.15-2.58Z" transform="translate(-201.47 -75.24)"/><path class="cls-14" d="M782.08,247.51l-.19,2.58,2.41-1,.54,1.48-2.58.75,1.67,2.13-1.29.88-1.36-2.24-1.36,2.24-1.29-.88,1.68-2.13-2.59-.75.55-1.48,2.38,1-.16-2.58Z" transform="translate(-201.47 -75.24)"/><path class="cls-14" d="M789.92,247.51l-.18,2.58,2.4-1,.54,1.48-2.58.75,1.68,2.13-1.3.88-1.36-2.24-1.36,2.24-1.29-.88,1.68-2.13-2.58-.75.54-1.48,2.38,1-.16-2.58Z" transform="translate(-201.47 -75.24)"/><path class="cls-14" d="M797.76,247.51l-.18,2.58,2.4-1,.55,1.48-2.59.75,1.68,2.13-1.29.88L797,252.07l-1.36,2.24-1.29-.88L796,251.3l-2.58-.75.54-1.48,2.38,1-.16-2.58Z" transform="translate(-201.47 -75.24)"/><path class="cls-14" d="M805.6,247.51l-.18,2.58,2.41-1,.54,1.48-2.59.75,1.68,2.13-1.29.88-1.36-2.24-1.36,2.24-1.29-.88,1.68-2.13-2.59-.75.55-1.48,2.38,1-.16-2.58Z" transform="translate(-201.47 -75.24)"/><path class="cls-14" d="M813.45,247.51l-.18,2.58,2.4-1,.54,1.48-2.58.75,1.68,2.13-1.3.88-1.36-2.24-1.36,2.24-1.29-.88,1.68-2.13-2.59-.75.55-1.48,2.38,1-.16-2.58Z" transform="translate(-201.47 -75.24)"/><rect class="cls-8" x="402.57" y="240.9" width="364.88" height="39.17" rx="2.06"/><path class="cls-10" d="M750.22,331.23a3.72,3.72,0,0,1,.5-2,4,4,0,0,1,1.31-1.33,5.57,5.57,0,0,1,1.82-.74,9.44,9.44,0,0,1,2-.22,7,7,0,0,1,2.78.57,6.42,6.42,0,0,1,2.28,1.65l-1.48,1.31a4.45,4.45,0,0,0-1.7-1.27,5.5,5.5,0,0,0-2.13-.41,5.25,5.25,0,0,0-1.16.14,3.69,3.69,0,0,0-1.06.43,2.6,2.6,0,0,0-.78.73,1.65,1.65,0,0,0-.31,1,2,2,0,0,0,.67,1.62,5.1,5.1,0,0,0,1.69.89q1,.33,2.19.6a10.4,10.4,0,0,1,2.18.76,4.58,4.58,0,0,1,1.69,1.35,3.76,3.76,0,0,1,.67,2.38,3.69,3.69,0,0,1-.57,2.09,4.44,4.44,0,0,1-1.45,1.41,6.4,6.4,0,0,1-2,.79,8.93,8.93,0,0,1-2.07.25,6.54,6.54,0,0,1-3.4-.87,6.28,6.28,0,0,1-2.36-2.55l1.77-.93a4.9,4.9,0,0,0,1.68,1.89,4.35,4.35,0,0,0,2.33.61,7.53,7.53,0,0,0,1.28-.12,4.33,4.33,0,0,0,1.29-.41,2.75,2.75,0,0,0,1-.81,2.14,2.14,0,0,0,.41-1.34,1.85,1.85,0,0,0-.68-1.53,5.54,5.54,0,0,0-1.7-.87c-.68-.23-1.41-.44-2.2-.63a9.89,9.89,0,0,1-2.2-.78,4.81,4.81,0,0,1-1.7-1.36A3.67,3.67,0,0,1,750.22,331.23Z" transform="translate(-201.47 -75.24)"/><path class="cls-10" d="M765.61,327.24V343h-2V327.24Z" transform="translate(-201.47 -75.24)"/><path class="cls-10" d="M779,330.3a2.59,2.59,0,0,0-.69-.67,4.81,4.81,0,0,0-.9-.47,5.87,5.87,0,0,0-1-.26,7.51,7.51,0,0,0-1-.08,6.24,6.24,0,0,0-2.24.4,4.89,4.89,0,0,0-1.84,1.31,4,4,0,0,0-1.08,2,12.16,12.16,0,0,0-.21,2.33v.57a9,9,0,0,0,.27,2.28,5,5,0,0,0,1.14,2,3.83,3.83,0,0,0,1,.77,6.1,6.1,0,0,0,1.17.51,7.69,7.69,0,0,0,1.24.29,9,9,0,0,0,1.25.09,5.59,5.59,0,0,0,1.4-.22,9.86,9.86,0,0,0,1.34-.46v-4h-3.4v-1.9h5.35v7.07a13.38,13.38,0,0,1-2.32,1,8.26,8.26,0,0,1-2.5.39,11.45,11.45,0,0,1-1.65-.12,8.73,8.73,0,0,1-3.13-1.12,5.72,5.72,0,0,1-1.25-1,6.5,6.5,0,0,1-1.52-2.6,10.7,10.7,0,0,1-.39-3v-.52c0-.53,0-1,0-1.52a8.38,8.38,0,0,1,.21-1.42,5.82,5.82,0,0,1,.54-1.37,6.49,6.49,0,0,1,1-1.36,6.4,6.4,0,0,1,2.58-1.73,9,9,0,0,1,3-.51,7.86,7.86,0,0,1,2.74.48,5.68,5.68,0,0,1,2.32,1.67Z" transform="translate(-201.47 -75.24)"/><path class="cls-10" d="M783.16,343V327.24h2.61l7.86,12.65V327.24h2V343h-2.49l-8-12.9V343Z" transform="translate(-201.47 -75.24)"/><path class="cls-10" d="M807.25,327.24V343h-2V327.24Z" transform="translate(-201.47 -75.24)"/><path class="cls-10" d="M810.13,343V327.24h2.61l7.87,12.65V327.24h2V343h-2.5l-8-12.9V343Z" transform="translate(-201.47 -75.24)"/><path class="cls-8" d="M742.66,280.1v20.61h20.6V280.1Zm18,18H745.23V282.68h15.46Zm-8.73-3-5.54-5.54,2-2,3.53,3.52,5.51-5.51,2,2L752,295.18h0Z" transform="translate(-201.47 -75.24)"/><path class="cls-8" d="M963.45,295.22H779.34a4.82,4.82,0,0,1-4.81-4.81h0a4.82,4.82,0,0,1,4.81-4.81H963.45a4.82,4.82,0,0,1,4.81,4.81h0A4.83,4.83,0,0,1,963.45,295.22Z" transform="translate(-201.47 -75.24)"/><rect class="cls-15" x="1227.06" y="86.25" width="380.52" height="264.03" rx="10.3"/><rect class="cls-16" x="1227.06" y="111.09" width="380.52" height="68.02"/><rect class="cls-17" x="1225.74" y="196.29" width="369.53" height="5.12"/><rect class="cls-17" x="1225.74" y="206.53" width="369.53" height="5.12"/><rect class="cls-17" x="1225.74" y="216.77" width="369.53" height="5.12"/><rect class="cls-17" x="1225.74" y="227.01" width="369.53" height="5.12"/><rect class="cls-18" x="1225.74" y="201.41" width="369.53" height="5.12"/><rect class="cls-18" x="1225.74" y="211.65" width="369.53" height="5.12"/><rect class="cls-18" x="1225.74" y="221.89" width="369.53" height="5.12"/><rect class="cls-18" x="1225.74" y="232.12" width="369.53" height="5.12"/><rect class="cls-3" x="1102.71" width="380.52" height="264.03" rx="10.3"/><rect class="cls-10" x="1511.1" y="201.48" width="63.7" height="30.56" rx="4.12"/><rect class="cls-10" x="1149.27" y="119.41" width="63.7" height="30.56" rx="4.12"/><rect class="cls-10" x="1221.58" y="119.41" width="63.7" height="30.56" rx="4.12"/><rect class="cls-10" x="1149.27" y="163.82" width="63.7" height="30.56" rx="4.12"/><rect class="cls-10" x="1221.58" y="163.82" width="63.7" height="30.56" rx="4.12"/><rect class="cls-10" x="1149.27" y="208.23" width="98.83" height="30.56" rx="4.12"/><rect class="cls-10" x="1256.71" y="209.16" width="100.47" height="30.56" rx="4.12"/><rect class="cls-10" x="1293.89" y="119.41" width="63.7" height="30.56" rx="4.12"/><rect class="cls-10" x="1366.2" y="119.41" width="63.7" height="30.56" rx="4.12"/><polygon class="cls-16" points="1200.51 187.54 1196.39 180.4 1204.63 180.4 1200.51 187.54"/><polygon class="cls-16" points="1200.51 170.67 1196.39 177.81 1204.63 177.81 1200.51 170.67"/><polygon class="cls-16" points="1275.28 187.54 1271.16 180.4 1279.4 180.4 1275.28 187.54"/><polygon class="cls-16" points="1275.28 170.67 1271.16 177.81 1279.4 177.81 1275.28 170.67"/><rect class="cls-10" x="239.88" y="1063.69" width="504.87" height="350.32" rx="10.3"/><path class="cls-2" d="M935.91,1138.92H451.65a10.33,10.33,0,0,0-10.3,10.31v21.51H946.22v-21.51A10.34,10.34,0,0,0,935.91,1138.92Z" transform="translate(-201.47 -75.24)"/><path class="cls-3" d="M888.16,1154.83a7.21,7.21,0,1,1-7.21-7.21A7.21,7.21,0,0,1,888.16,1154.83Z" transform="translate(-201.47 -75.24)"/><circle class="cls-4" cx="904.25" cy="1154.83" r="7.21" transform="translate(-713.3 1461.7) rotate(-67.04)"/><path class="cls-5" d="M927.55,1147.62a7.21,7.21,0,1,0,7.21,7.21A7.21,7.21,0,0,0,927.55,1147.62Z" transform="translate(-201.47 -75.24)"/><rect class="cls-1" x="239.88" y="1094.94" width="504.87" height="31.82"/><rect class="cls-6" x="352.94" y="1100.55" width="348.25" height="20.61" rx="4.12"/><path class="cls-8" d="M538.51,1186.34a7.69,7.69,0,0,1-7.63,7.45,7.8,7.8,0,0,1-7.63-7.82,7.63,7.63,0,0,1,7.63-7.62,7.54,7.54,0,0,1,4.07,1.2l-2.06,2,7.84,2.1-2.1-7.83-1.81,1.81a10.28,10.28,0,1,0-5.94,18.71,10.37,10.37,0,0,0,10.23-10.05Z" transform="translate(-201.47 -75.24)"/><polygon class="cls-8" points="252.79 1110.85 265.19 1118.01 265.19 1114.57 276.47 1114.57 276.47 1107.13 265.19 1107.13 265.19 1103.69 252.79 1110.85"/><polygon class="cls-8" points="311.03 1110.85 298.63 1103.69 298.63 1107.13 287.35 1107.13 287.35 1114.57 298.63 1114.57 298.63 1118.01 311.03 1110.85"/><rect class="cls-8" x="707.77" y="1100.55" width="25.53" height="4.49"/><rect class="cls-8" x="707.77" y="1108.6" width="25.53" height="4.49"/><rect class="cls-8" x="707.77" y="1116.66" width="25.53" height="4.49"/><path class="cls-1" d="M921,1231H599.38a4.82,4.82,0,0,1-4.81-4.81h0a4.83,4.83,0,0,1,4.81-4.81H921a4.82,4.82,0,0,1,4.8,4.81h0A4.82,4.82,0,0,1,921,1231Z" transform="translate(-201.47 -75.24)"/><path class="cls-1" d="M921,1253.65H599.38a4.83,4.83,0,0,1-4.81-4.81h0a4.82,4.82,0,0,1,4.81-4.81H921a4.82,4.82,0,0,1,4.8,4.81h0A4.82,4.82,0,0,1,921,1253.65Z" transform="translate(-201.47 -75.24)"/><path class="cls-1" d="M921,1276.31H599.38a4.82,4.82,0,0,1-4.81-4.8h0a4.82,4.82,0,0,1,4.81-4.81H921a4.82,4.82,0,0,1,4.8,4.81h0A4.81,4.81,0,0,1,921,1276.31Z" transform="translate(-201.47 -75.24)"/><path class="cls-1" d="M921,1299H599.38a4.82,4.82,0,0,1-4.81-4.81h0a4.82,4.82,0,0,1,4.81-4.8H921a4.81,4.81,0,0,1,4.8,4.8h0A4.82,4.82,0,0,1,921,1299Z" transform="translate(-201.47 -75.24)"/><path class="cls-1" d="M761.65,1321.65H599.38a4.82,4.82,0,0,1-4.81-4.81h0a4.83,4.83,0,0,1,4.81-4.81H761.65a4.82,4.82,0,0,1,4.81,4.81h0A4.82,4.82,0,0,1,761.65,1321.65Z" transform="translate(-201.47 -75.24)"/><path class="cls-1" d="M723.72,1362.8H468.43a4.82,4.82,0,0,1-4.8-4.81h0a4.82,4.82,0,0,1,4.8-4.81H723.72a4.82,4.82,0,0,1,4.81,4.81h0A4.82,4.82,0,0,1,723.72,1362.8Z" transform="translate(-201.47 -75.24)"/><path class="cls-1" d="M723.72,1385.47H468.43a4.82,4.82,0,0,1-4.8-4.81h0a4.82,4.82,0,0,1,4.8-4.81H723.72a4.82,4.82,0,0,1,4.81,4.81h0A4.82,4.82,0,0,1,723.72,1385.47Z" transform="translate(-201.47 -75.24)"/><path class="cls-1" d="M723.72,1408.14H468.43a4.82,4.82,0,0,1-4.8-4.81h0a4.82,4.82,0,0,1,4.8-4.81H723.72a4.82,4.82,0,0,1,4.81,4.81h0A4.82,4.82,0,0,1,723.72,1408.14Z" transform="translate(-201.47 -75.24)"/><path class="cls-1" d="M723.72,1430.8H468.43a4.81,4.81,0,0,1-4.8-4.8h0a4.82,4.82,0,0,1,4.8-4.81H723.72a4.82,4.82,0,0,1,4.81,4.81h0A4.82,4.82,0,0,1,723.72,1430.8Z" transform="translate(-201.47 -75.24)"/><path class="cls-1" d="M596.3,1453.47H468.43a4.82,4.82,0,0,1-4.8-4.81h0a4.81,4.81,0,0,1,4.8-4.8H596.3a4.81,4.81,0,0,1,4.8,4.8h0A4.82,4.82,0,0,1,596.3,1453.47Z" transform="translate(-201.47 -75.24)"/><rect class="cls-12" x="262.16" y="1146.13" width="120.22" height="120.22" rx="4.12"/><path class="cls-13" d="M473.93,1341.58h99.61c.14,0,.27,0,.4,0-4.93-28.87-25.52-50.55-50.2-50.55s-45.28,21.68-50.21,50.55C473.66,1341.55,473.79,1341.58,473.93,1341.58Z" transform="translate(-201.47 -75.24)"/><circle class="cls-13" cx="523.74" cy="1260.96" r="26.11" transform="translate(-1036.08 1324.32) rotate(-73.27)"/><rect class="cls-8" x="540.9" y="1277.95" width="183.42" height="117.15" rx="4.12"/><polygon class="cls-9" points="551.14 1385.61 586.65 1339.71 628.33 1365.21 664.69 1301.17 716.43 1385.61 551.14 1385.61"/><path class="cls-9" d="M812.74,1384.23a17.52,17.52,0,1,1-17.52-17.52A17.53,17.53,0,0,1,812.74,1384.23Z" transform="translate(-201.47 -75.24)"/><rect class="cls-1" x="1139.61" y="1060.3" width="504.87" height="350.32" rx="10.3"/><path class="cls-2" d="M1835.64,1135.54H1351.38a10.33,10.33,0,0,0-10.31,10.3v21.51H1846v-21.51A10.33,10.33,0,0,0,1835.64,1135.54Z" transform="translate(-201.47 -75.24)"/><path class="cls-3" d="M1787.89,1151.44a7.22,7.22,0,1,1-7.22-7.21A7.22,7.22,0,0,1,1787.89,1151.44Z" transform="translate(-201.47 -75.24)"/><circle class="cls-4" cx="1602.51" cy="1076.21" r="7.21"/><path class="cls-5" d="M1827.28,1144.23a7.22,7.22,0,1,0,7.21,7.21A7.21,7.21,0,0,0,1827.28,1144.23Z" transform="translate(-201.47 -75.24)"/><rect class="cls-10" x="1207.79" y="1241.64" width="365.87" height="39.17" rx="2.06"/><path class="cls-14" d="M1541.19,1328.75l-5.22,8.14a.5.5,0,0,1-.45.22v7.12h-2.11v-7.12a.55.55,0,0,1-.45-.22l-5.22-8.14,2-.55,4.49,7.1h.45l4.47-7.1Z" transform="translate(-201.47 -75.24)"/><path class="cls-14" d="M1549.76,1344.5a8.22,8.22,0,0,1-3.38-.63,6.1,6.1,0,0,1-2.29-1.74,7.28,7.28,0,0,1-1.31-2.59,12.25,12.25,0,0,1-.41-3.2v-.61a8.57,8.57,0,0,1,.51-3,6.84,6.84,0,0,1,1.46-2.39,6.55,6.55,0,0,1,2.32-1.58,8.69,8.69,0,0,1,6.19,0,6.55,6.55,0,0,1,2.32,1.58,6.69,6.69,0,0,1,1.46,2.39,8.57,8.57,0,0,1,.51,3v.61a12.25,12.25,0,0,1-.41,3.2,7.12,7.12,0,0,1-1.31,2.59,6.1,6.1,0,0,1-2.29,1.74A8.17,8.17,0,0,1,1549.76,1344.5Zm0-14.44a5.17,5.17,0,0,0-2.25.46,4.79,4.79,0,0,0-1.64,1.22,5.23,5.23,0,0,0-1,1.82,6.72,6.72,0,0,0-.35,2.2v.53a9.65,9.65,0,0,0,.3,2.44,6.36,6.36,0,0,0,.94,2,4.7,4.7,0,0,0,1.62,1.38,5.06,5.06,0,0,0,2.35.51,5.54,5.54,0,0,0,2.41-.48,4.58,4.58,0,0,0,1.66-1.34,5.62,5.62,0,0,0,.94-2,10,10,0,0,0,.29-2.51v-.53a6.72,6.72,0,0,0-.35-2.2,5.23,5.23,0,0,0-1-1.82,4.74,4.74,0,0,0-1.65-1.22A5.17,5.17,0,0,0,1549.76,1330.06Z" transform="translate(-201.47 -75.24)"/><path class="cls-14" d="M1561.27,1328.48v9.06a15.4,15.4,0,0,0,.14,2.17,3.9,3.9,0,0,0,.57,1.6,2.72,2.72,0,0,0,1.26,1,5.73,5.73,0,0,0,2.18.34,5.35,5.35,0,0,0,2.13-.35,2.81,2.81,0,0,0,1.27-1,3.92,3.92,0,0,0,.6-1.61,13.45,13.45,0,0,0,.15-2.12v-9.06h2v9a13.16,13.16,0,0,1-.3,2.94,5.4,5.4,0,0,1-1,2.22,4.46,4.46,0,0,1-1.9,1.4,7.8,7.8,0,0,1-3,.49,8.44,8.44,0,0,1-3-.47,4.45,4.45,0,0,1-1.9-1.38,5.28,5.28,0,0,1-1-2.21,14.14,14.14,0,0,1-.28-3v-9Z" transform="translate(-201.47 -75.24)"/><path class="cls-14" d="M1579.43,1338.11a1.39,1.39,0,0,0-.64-.45,2.32,2.32,0,0,0-.77-.14h-1.81v6.71h-2v-15.75h7.16a5.42,5.42,0,0,1,1.84.3,4.07,4.07,0,0,1,1.44.89,4.11,4.11,0,0,1,.94,1.39,4.87,4.87,0,0,1,.34,1.84,4.61,4.61,0,0,1-1.15,3.25,4.54,4.54,0,0,1-3.21,1.35l3.65,4.58a1.79,1.79,0,0,0,.73.62,2.57,2.57,0,0,0,.79.1v1.43a1.89,1.89,0,0,1-.58.2,2.43,2.43,0,0,1-.55.07,1.79,1.79,0,0,1-1.19-.45,6.83,6.83,0,0,1-1-1Zm-3.22-2.43H1581a3,3,0,0,0,2.17-.68,2.79,2.79,0,0,0,.71-2.1,2.55,2.55,0,0,0-.67-1.94,2.73,2.73,0,0,0-1.94-.63h-5Z" transform="translate(-201.47 -75.24)"/><path class="cls-14" d="M1607,1344.23h-11.26v-15.75h11.33l-.59,1.85h-8.7V1335h7.8v1.86h-7.8v5.55H1607Z" transform="translate(-201.47 -75.24)"/><path class="cls-14" d="M1608.94,1344.23v-15.75h3.2l4.46,11.15,4.63-11.15h2.85v15.75h-2v-13.17l-4.53,11.31h-2l-4.58-11.58v13.44Z" transform="translate(-201.47 -75.24)"/><path class="cls-14" d="M1629.79,1339.47l-1.74,4.76h-2.18l5.87-15.75h2.54l6.17,15.75h-2.13l-1.84-4.76Zm.59-1.68h5.44l-2.15-5.55L1633,1330l-.61,2.29Z" transform="translate(-201.47 -75.24)"/><path class="cls-14" d="M1644.21,1328.48v15.75h-2v-15.75Z" transform="translate(-201.47 -75.24)"/><path class="cls-14" d="M1649.13,1328.48v13.89h7.77l-.56,1.86h-9.25v-15.75Z" transform="translate(-201.47 -75.24)"/><rect class="cls-8" x="1208.28" y="1297.78" width="364.88" height="39.17" rx="2.06"/><path class="cls-10" d="M1535.34,1388.1a3.65,3.65,0,0,1,.5-2,4,4,0,0,1,1.3-1.33,5.65,5.65,0,0,1,1.82-.73,9.45,9.45,0,0,1,2-.23,7,7,0,0,1,2.78.57,6.42,6.42,0,0,1,2.28,1.65l-1.47,1.32a4.5,4.5,0,0,0-1.7-1.27,5.51,5.51,0,0,0-2.14-.41,5.16,5.16,0,0,0-1.15.14,3.48,3.48,0,0,0-1.07.43,2.83,2.83,0,0,0-.78.72,1.73,1.73,0,0,0-.3,1,2,2,0,0,0,.66,1.63,5.09,5.09,0,0,0,1.69.88q1,.33,2.19.6a11.54,11.54,0,0,1,2.19.76,4.77,4.77,0,0,1,1.69,1.35,3.86,3.86,0,0,1,.67,2.39,3.71,3.71,0,0,1-.57,2.09,4.76,4.76,0,0,1-1.45,1.41,6.77,6.77,0,0,1-2,.79,9,9,0,0,1-2.08.25,6.59,6.59,0,0,1-3.4-.87,6.32,6.32,0,0,1-2.35-2.55l1.76-.93a4.9,4.9,0,0,0,1.68,1.89,4.38,4.38,0,0,0,2.34.6,8.63,8.63,0,0,0,1.28-.11,4.63,4.63,0,0,0,1.29-.41,2.88,2.88,0,0,0,1-.82,2.09,2.09,0,0,0,.4-1.33,1.82,1.82,0,0,0-.67-1.53,5.66,5.66,0,0,0-1.7-.88c-.69-.22-1.42-.43-2.2-.62a10.79,10.79,0,0,1-2.2-.78,4.83,4.83,0,0,1-1.7-1.36A3.66,3.66,0,0,1,1535.34,1388.1Z" transform="translate(-201.47 -75.24)"/><path class="cls-10" d="M1550.55,1384.11v9.07a15.52,15.52,0,0,0,.13,2.17,3.87,3.87,0,0,0,.58,1.59,2.75,2.75,0,0,0,1.26,1,5.69,5.69,0,0,0,2.18.34,5.57,5.57,0,0,0,2.13-.35,2.86,2.86,0,0,0,1.27-1,4,4,0,0,0,.6-1.61,15,15,0,0,0,.14-2.12v-9.07h2v9a13.19,13.19,0,0,1-.29,2.94,5.59,5.59,0,0,1-1,2.22,4.52,4.52,0,0,1-1.9,1.4,7.84,7.84,0,0,1-3,.49,8.2,8.2,0,0,1-3-.48,4.29,4.29,0,0,1-1.9-1.37,5.28,5.28,0,0,1-1-2.21,14.14,14.14,0,0,1-.28-3v-9Z" transform="translate(-201.47 -75.24)"/><path class="cls-10" d="M1572.81,1391.5a5.16,5.16,0,0,1,1.82,1.49,3.87,3.87,0,0,1,.69,2.39,4.6,4.6,0,0,1-.42,2,3.77,3.77,0,0,1-1.13,1.39,4.69,4.69,0,0,1-1.65.8,8.14,8.14,0,0,1-2,.25h-6.66v-15.76h6.32a7,7,0,0,1,1.81.23,3.68,3.68,0,0,1,1.45.73,3.44,3.44,0,0,1,1,1.27,4.49,4.49,0,0,1,.35,1.85,3.85,3.85,0,0,1-1.54,3.18Zm-3.54-.77a3.67,3.67,0,0,0,1.08-.16,3.1,3.1,0,0,0,1-.46,2.3,2.3,0,0,0,.67-.78,2.52,2.52,0,0,0,.25-1.14,2,2,0,0,0-.65-1.75,2.91,2.91,0,0,0-1.73-.47h-4.35v4.76Zm-3.78,1.86V1398h4.85a5.79,5.79,0,0,0,1.16-.11,2.31,2.31,0,0,0,.88-.41,1.79,1.79,0,0,0,.54-.82,4.06,4.06,0,0,0,.18-1.31,2.68,2.68,0,0,0-.77-2.07,3.07,3.07,0,0,0-2.13-.7Z" transform="translate(-201.47 -75.24)"/><path class="cls-10" d="M1577.45,1388.1a3.74,3.74,0,0,1,.5-2,4.06,4.06,0,0,1,1.31-1.33,5.56,5.56,0,0,1,1.82-.73,9.45,9.45,0,0,1,2-.23,7,7,0,0,1,2.78.57,6.42,6.42,0,0,1,2.28,1.65l-1.48,1.32a4.35,4.35,0,0,0-1.7-1.27,5.5,5.5,0,0,0-2.13-.41,5.25,5.25,0,0,0-1.16.14,3.42,3.42,0,0,0-1.06.43,2.57,2.57,0,0,0-.78.72,1.67,1.67,0,0,0-.31,1,2,2,0,0,0,.67,1.63,5.09,5.09,0,0,0,1.69.88q1,.33,2.19.6a11.69,11.69,0,0,1,2.18.76,4.69,4.69,0,0,1,1.69,1.35,3.79,3.79,0,0,1,.67,2.39,3.71,3.71,0,0,1-.57,2.09,4.65,4.65,0,0,1-1.45,1.41,6.66,6.66,0,0,1-2,.79,8.93,8.93,0,0,1-2.07.25,6.54,6.54,0,0,1-3.4-.87,6.34,6.34,0,0,1-2.36-2.55l1.77-.93a4.9,4.9,0,0,0,1.68,1.89,4.34,4.34,0,0,0,2.33.6,8.63,8.63,0,0,0,1.28-.11,4.63,4.63,0,0,0,1.29-.41,2.88,2.88,0,0,0,1-.82,2.09,2.09,0,0,0,.41-1.33,1.82,1.82,0,0,0-.68-1.53,5.55,5.55,0,0,0-1.7-.88c-.68-.22-1.41-.43-2.2-.62a11,11,0,0,1-2.2-.78,4.92,4.92,0,0,1-1.7-1.36A3.72,3.72,0,0,1,1577.45,1388.1Z" transform="translate(-201.47 -75.24)"/><path class="cls-10" d="M1592.61,1394.18a5.6,5.6,0,0,0,.65,2,3.81,3.81,0,0,0,1.5,1.48,5.38,5.38,0,0,0,2.69.57,5.25,5.25,0,0,0,2-.37,4.56,4.56,0,0,0,1.66-1.15l1.43,1.34a5.86,5.86,0,0,1-2.31,1.55,7.72,7.72,0,0,1-2.74.49,8.2,8.2,0,0,1-3.38-.62,5.63,5.63,0,0,1-2.19-1.72,6.82,6.82,0,0,1-1.19-2.58,13.86,13.86,0,0,1-.36-3.24v-.84a10,10,0,0,1,.44-3.07,6.12,6.12,0,0,1,1.33-2.29,5.7,5.7,0,0,1,2.22-1.44,9,9,0,0,1,3.13-.5,8.32,8.32,0,0,1,2.7.46,5.93,5.93,0,0,1,2.31,1.45l-1.39,1.38a4.5,4.5,0,0,0-1.66-1.08,5.79,5.79,0,0,0-2-.35,5.36,5.36,0,0,0-2.46.49,4.1,4.1,0,0,0-1.53,1.27,4.76,4.76,0,0,0-.79,1.76,9.24,9.24,0,0,0-.21,2v.75A17,17,0,0,0,1592.61,1394.18Z" transform="translate(-201.47 -75.24)"/><path class="cls-10" d="M1610,1393.75a1.46,1.46,0,0,0-.63-.46,2.35,2.35,0,0,0-.77-.13h-1.82v6.71h-2v-15.76h7.17a5.17,5.17,0,0,1,1.83.31,4,4,0,0,1,1.44.88,4.16,4.16,0,0,1,.94,1.4,5.18,5.18,0,0,1-.8,5.09,4.56,4.56,0,0,1-3.21,1.35l3.65,4.57a1.76,1.76,0,0,0,.72.63,2.64,2.64,0,0,0,.8.1v1.43a2,2,0,0,1-.58.2,2.51,2.51,0,0,1-.56.07,1.82,1.82,0,0,1-1.19-.45,8.87,8.87,0,0,1-1-1Zm-3.22-2.43h4.76a3,3,0,0,0,2.18-.68,2.8,2.8,0,0,0,.7-2.11,2.5,2.5,0,0,0-.67-1.93,2.71,2.71,0,0,0-1.94-.63h-5Z" transform="translate(-201.47 -75.24)"/><path class="cls-10" d="M1621.54,1384.11v15.76h-2v-15.76Z" transform="translate(-201.47 -75.24)"/><path class="cls-10" d="M1633.78,1391.5a5.11,5.11,0,0,1,1.83,1.49,3.87,3.87,0,0,1,.69,2.39,4.6,4.6,0,0,1-.42,2,3.87,3.87,0,0,1-1.13,1.39,4.66,4.66,0,0,1-1.66.8,8.14,8.14,0,0,1-2,.25h-6.66v-15.76h6.32a7,7,0,0,1,1.82.23,3.75,3.75,0,0,1,1.45.73,3.32,3.32,0,0,1,1,1.27,4.33,4.33,0,0,1,.35,1.85,3.82,3.82,0,0,1-1.54,3.18Zm-3.53-.77a3.56,3.56,0,0,0,1.07-.16,2.9,2.9,0,0,0,1-.46,2.2,2.2,0,0,0,.67-.78,2.4,2.4,0,0,0,.25-1.14,2,2,0,0,0-.64-1.75,2.92,2.92,0,0,0-1.74-.47h-4.35v4.76Zm-3.79,1.86V1398h4.85a5.82,5.82,0,0,0,1.17-.11,2.19,2.19,0,0,0,.87-.41,1.79,1.79,0,0,0,.54-.82,3.78,3.78,0,0,0,.19-1.31,2.68,2.68,0,0,0-.77-2.07,3.1,3.1,0,0,0-2.13-.7Z" transform="translate(-201.47 -75.24)"/><path class="cls-10" d="M1649.76,1399.87H1638.5v-15.76h11.33l-.59,1.86h-8.7v4.63h7.79v1.86h-7.79V1398h9.22Z" transform="translate(-201.47 -75.24)"/><rect class="cls-19" x="1343.62" y="1134.31" width="96.85" height="74.19" rx="10.3"/><path class="cls-20" d="M1555.39,1283.73h76.24a10.29,10.29,0,0,0,9-5.4,9.66,9.66,0,0,0-2.39-3.61l-38.08-36a10.82,10.82,0,0,0-14.65,0l-38.08,36a9.7,9.7,0,0,0-1.63,2.08v.33A10.34,10.34,0,0,0,1555.39,1283.73Z" transform="translate(-201.47 -75.24)"/><path class="cls-10" d="M1631.63,1209.54h-76.24a10.3,10.3,0,0,0-9.07,5.53,9.77,9.77,0,0,0,2.46,3.93l38.08,37.09a10.58,10.58,0,0,0,14.65,0l38.08-37.09a9.84,9.84,0,0,0,1.63-2.15v-.7A10.33,10.33,0,0,0,1631.63,1209.54Z" transform="translate(-201.47 -75.24)"/><rect class="cls-1" x="650.75" y="455.1" width="635.57" height="458.24" rx="32.09"/><rect class="cls-21" x="664.07" y="464.71" width="608.93" height="439.04" rx="32.09"/><path class="cls-1" d="M1503,1029.66H837a27,27,0,0,1-26.9-26.9h0a14.21,14.21,0,0,1,14.17-14.18h691.38a14.21,14.21,0,0,1,14.17,14.18h0A27,27,0,0,1,1503,1029.66Z" transform="translate(-201.47 -75.24)"/><path class="cls-1" d="M1175.09,556.74a5.09,5.09,0,1,1-5.09-5.09A5.09,5.09,0,0,1,1175.09,556.74Z" transform="translate(-201.47 -75.24)"/><path class="cls-1" d="M1175.09,966.53a5.09,5.09,0,1,1-5.09-5.09A5.09,5.09,0,0,1,1175.09,966.53Z" transform="translate(-201.47 -75.24)"/><path class="cls-21" d="M810.62,997h718.76a11.75,11.75,0,0,0-11.22-8.4H821.84A11.75,11.75,0,0,0,810.62,997Z" transform="translate(-201.47 -75.24)"/><rect class="cls-1" x="697.45" y="497.79" width="542.16" height="376.19" rx="11.06"/><path class="cls-2" d="M1430,573H910a11.1,11.1,0,0,0-11.06,11.07v23.1h542.16v-23.1A11.1,11.1,0,0,0,1430,573Z" transform="translate(-201.47 -75.24)"/><path class="cls-3" d="M1378.74,590.11a7.75,7.75,0,1,1-7.75-7.75A7.75,7.75,0,0,1,1378.74,590.11Z" transform="translate(-201.47 -75.24)"/><path class="cls-4" d="M1396,582.36a7.75,7.75,0,1,0,7.75,7.75A7.74,7.74,0,0,0,1396,582.36Z" transform="translate(-201.47 -75.24)"/><path class="cls-5" d="M1421,582.36a7.75,7.75,0,1,0,7.75,7.75A7.75,7.75,0,0,0,1421,582.36Z" transform="translate(-201.47 -75.24)"/><path class="cls-22" d="M1455.69,530.34H884.31a32,32,0,0,0-25.54,12.78l622.06,433.22a31.84,31.84,0,0,0,7-19.85V562.43A32.18,32.18,0,0,0,1455.69,530.34Z" transform="translate(-201.47 -75.24)"/><path class="cls-13" d="M774.19,434.14a4.47,4.47,0,0,1-2.79-5.09c.28-1.31.55-2.58.83-3.84l-12.92-3.42,25.06-25.21,9.31,34.31-12.82-3.39c-.25,1.11-.49,2.23-.73,3.38a4.47,4.47,0,0,1-5.28,3.45A4.58,4.58,0,0,1,774.19,434.14Zm.66,29.53c.57-5.29,1.32-10.82,2.23-16.44a4.46,4.46,0,0,0-8.8-1.43c-.94,5.78-1.71,11.47-2.29,16.92a4.46,4.46,0,1,0,8.86.95Zm-1.2,32.94c-.25-5.18-.26-10.72,0-16.45a4.46,4.46,0,1,0-8.91-.35c-.24,6-.23,11.78,0,17.22a4.47,4.47,0,0,0,2.89,4,4.56,4.56,0,0,0,1.78.27A4.45,4.45,0,0,0,773.65,496.61Zm5.48,31.14a92.57,92.57,0,0,1-3.78-14.94,4.46,4.46,0,0,0-8.79,1.5,101.35,101.35,0,0,0,4.16,16.39l.24.65a4.45,4.45,0,1,0,8.38-3Zm87.71,95.79c-4.73-2.89-9.4-5.94-13.89-9a4.46,4.46,0,0,0-5.07,7.33c4.62,3.2,9.44,6.33,14.31,9.32a4.93,4.93,0,0,0,.77.37,4.46,4.46,0,0,0,3.88-8Zm-27.23-18.86c-4.4-3.45-8.67-7-12.69-10.61a4.45,4.45,0,0,0-5.94,6.64c4.17,3.73,8.58,7.42,13.13,11a4.5,4.5,0,0,0,1.19.66,4.45,4.45,0,0,0,4.31-7.68Zm-45.39-47.47a147.4,147.4,0,0,1-8.36-14A4.46,4.46,0,0,0,778,547.3a154.7,154.7,0,0,0,8.87,14.89,4.41,4.41,0,0,0,2.13,1.68,4.46,4.46,0,0,0,5.27-6.66ZM815,582.63c-3.89-4-7.59-8.15-11-12.27a4.46,4.46,0,1,0-6.89,5.65c3.54,4.32,7.4,8.63,11.46,12.83a4.46,4.46,0,1,0,6.4-6.21Zm95.34,67.88L889.93,621.4l-5.61,12c-1-.53-2.05-1.05-3.06-1.6a4.46,4.46,0,1,0-4.24,7.84c1.17.63,2.36,1.23,3.54,1.85l-5.64,12.11Z" transform="translate(-201.47 -75.24)"/><path class="cls-13" d="M725.85,783.64,734,794l-35.19,5.08,13.18-33,8.26,10.49c1.3-.76,2.61-1.48,3.93-2.18a4.46,4.46,0,1,1,4.16,7.88C727.51,782.7,726.68,783.17,725.85,783.64Zm28.39-20h-.08a113.44,113.44,0,0,0-15.36,4.31,4.46,4.46,0,0,0,2.31,8.58,4.23,4.23,0,0,0,.7-.18,104,104,0,0,1,14.14-4,4.45,4.45,0,0,0-1.71-8.74Zm65.17,11.63a4.46,4.46,0,0,0-2.47-5.8,112.44,112.44,0,0,0-15.19-4.9,4.45,4.45,0,1,0-2.13,8.65,104.11,104.11,0,0,1,14,4.52,4.43,4.43,0,0,0,2.48.25A4.5,4.5,0,0,0,819.41,775.24ZM786,761.86c-2.64-.25-5.33-.4-8-.45s-5.35,0-8,.14a4.46,4.46,0,0,0,.51,8.9c2.44-.13,4.91-.18,7.34-.13s4.88.18,7.3.42a4.33,4.33,0,0,0,1.25-.06,4.46,4.46,0,0,0-.4-8.82Zm57.81,6.76-8.65,10.15c-1.28-.8-2.56-1.59-3.86-2.34a4.46,4.46,0,0,0-4.46,7.72c.82.48,1.64,1,2.46,1.49l-8.56,10,35,6.44Z" transform="translate(-201.47 -75.24)"/><path class="cls-13" d="M784.44,1125.44l12.25-2.07-12.42,33.32-22.65-27.4L775,1127c.34-1.73.71-3.44,1.13-5.15a4.46,4.46,0,0,1,8.65,2.16C784.64,1124.51,784.55,1125,784.44,1125.44Zm32.35-67.79a134.5,134.5,0,0,0-13.66,13.56,4.46,4.46,0,1,0,6.72,5.86,124.9,124.9,0,0,1,12.75-12.66,4.46,4.46,0,1,0-5.81-6.76Zm-19.07,27.61a4.46,4.46,0,0,0-6.16,1.34,124.06,124.06,0,0,0-9.16,17,4.46,4.46,0,1,0,8.16,3.6,115.7,115.7,0,0,1,8.5-15.76A4.46,4.46,0,0,0,797.72,1085.26Zm86.88-61.61c-6.26,1.65-12.37,3.56-18.16,5.67A4.46,4.46,0,0,0,868,1038a4.51,4.51,0,0,0,1.52-.27c5.54-2,11.39-3.85,17.38-5.43a4.46,4.46,0,0,0-2.27-8.62Zm-35.72,13.14a160.17,160.17,0,0,0-16.67,9.4,4.46,4.46,0,0,0,2.42,8.2,4.35,4.35,0,0,0,2.41-.72,153.88,153.88,0,0,1,15.76-8.88,4.45,4.45,0,1,0-3.92-8Zm89.33-16.73-32.47-14.48,1.4,13.35c-1.33.21-2.66.4-4,.64a4.45,4.45,0,0,0,.78,8.84,4.22,4.22,0,0,0,.79-.07c1.1-.2,2.22-.35,3.33-.54l1.37,13.14Z" transform="translate(-201.47 -75.24)"/><path class="cls-13" d="M1419.6,997.7a4.45,4.45,0,0,1-5.67,2.74c-.93-.32-1.87-.62-2.8-.92l-2.27,12.93-27.26-22.84,33.4-12.18-2.32,13.22c1.4.43,2.8.89,4.18,1.37A4.45,4.45,0,0,1,1419.6,997.7Zm28.54,10.08a137.82,137.82,0,0,0-15.12-8.89,4.45,4.45,0,1,0-4,8,129.86,129.86,0,0,1,14.14,8.32,4.46,4.46,0,1,0,5-7.38Zm45.12,71a157,157,0,0,1,5.21,15.66,4.46,4.46,0,0,0,8.59-2.37,162.1,162.1,0,0,0-5.51-16.55,4.45,4.45,0,1,0-8.29,3.26ZM1462,1018.5a4.46,4.46,0,1,0-5.88,6.7,132.51,132.51,0,0,1,11.64,11.58,4.47,4.47,0,0,0,3.34,1.5,4.4,4.4,0,0,0,3-1.13,4.46,4.46,0,0,0,.38-6.29A143.55,143.55,0,0,0,1462,1018.5Zm30.41,47.16a4.45,4.45,0,0,0,1.86-6,149.16,149.16,0,0,0-9-15,4.46,4.46,0,0,0-7.34,5.06,142.88,142.88,0,0,1,8.5,14.08,4.46,4.46,0,0,0,3.95,2.38A4.41,4.41,0,0,0,1492.42,1065.66Zm19.07,47.93c-.2-1.48-.43-2.95-.67-4.42a4.46,4.46,0,1,0-8.79,1.46c.15.92.28,1.85.42,2.77l-13.07-.27,17.13,31.15,18.42-30.41Z" transform="translate(-201.47 -75.24)"/><path class="cls-13" d="M1504,776.85l1.59,13.28-32.68-14,28.47-21.3L1503,768c1.28-.12,2.55-.25,3.83-.36a4.46,4.46,0,0,1,.77,8.88C1506.38,776.62,1505.21,776.74,1504,776.85Zm37.34-11.13c-5.77.15-11.59.38-17.29.7a4.46,4.46,0,0,0,.49,8.9c5.62-.31,11.35-.54,17-.69a4.46,4.46,0,0,0-.24-8.91Zm69.14,2.13c-5.74-.49-11.54-.91-17.25-1.25a4.46,4.46,0,0,0-2.64,8.22,4.39,4.39,0,0,0,2.12.68c5.63.33,11.35.75,17,1.23a4.46,4.46,0,0,0,.76-8.88Zm-34.53-2c-5.75-.18-11.57-.28-17.3-.3a4.47,4.47,0,0,0-4.47,4.45,4.42,4.42,0,0,0,2.08,3.78,4.32,4.32,0,0,0,2.36.69c5.65,0,11.38.12,17,.29a4.46,4.46,0,1,0,.28-8.91Zm85.46,12.91-28-21.88L1631.56,770l-3.82-.45a4.46,4.46,0,0,0-1,8.86l3.57.42-1.85,13.22Z" transform="translate(-201.47 -75.24)"/><path class="cls-13" d="M1476.17,633l8.24,10.38-35.17,5.23,13.06-33.07,8.32,10.47c.87-.76,1.76-1.5,2.62-2.27a4.46,4.46,0,0,1,5.92,6.67C1478.17,631.25,1477.16,632.1,1476.17,633Zm52.5-64.78a4.44,4.44,0,0,0-6.22,1c-3.58,4.95-7.34,9.87-11.18,14.62a4.45,4.45,0,1,0,6.93,5.6c3.94-4.87,7.8-9.92,11.47-15A4.45,4.45,0,0,0,1528.67,568.19Zm-29.35,29.61c-4.09,4.54-8.36,9-12.69,13.32a4.46,4.46,0,0,0,3.15,7.62,4.43,4.43,0,0,0,3.14-1.3c4.44-4.41,8.82-9,13-13.67a4.46,4.46,0,0,0-6.62-6Zm49.16-61.18a4.45,4.45,0,0,0-6.08,1.65c-3,5.3-6.26,10.59-9.57,15.72a4.46,4.46,0,1,0,7.49,4.84c3.4-5.27,6.7-10.7,9.81-16.13A4.46,4.46,0,0,0,1548.48,536.62Zm29.1-68.52a4.45,4.45,0,0,0-5.6,2.9c-1.84,5.8-3.87,11.65-6,17.38a4.46,4.46,0,0,0,2.59,5.75,4.59,4.59,0,0,0,1.58.29,4.46,4.46,0,0,0,4.17-2.89c2.22-5.88,4.31-11.88,6.2-17.83A4.46,4.46,0,0,0,1577.58,468.1Zm-12.73,35a4.47,4.47,0,0,0-5.88,2.29c-2.46,5.59-5.1,11.19-7.85,16.64a4.46,4.46,0,1,0,8,4c2.82-5.59,5.53-11.33,8.06-17.07A4.47,4.47,0,0,0,1564.85,503.13Zm21.62-71.22a4.45,4.45,0,0,0-5.26,3.49c-1.2,6-2.59,12-4.12,17.92a4.45,4.45,0,0,0,3.19,5.43,4.31,4.31,0,0,0,1.12.15,4.46,4.46,0,0,0,4.31-3.34c1.58-6.09,3-12.29,4.24-18.4A4.44,4.44,0,0,0,1586.47,431.91Zm20.43-16.17-15-32.23-20.4,29.11,13.32,1.18c-.15,1.14-.28,2.29-.45,3.43a4.46,4.46,0,0,0,3.78,5,4.6,4.6,0,0,0,.64.05,4.45,4.45,0,0,0,4.4-3.82c.19-1.31.34-2.62.52-3.93Z" transform="translate(-201.47 -75.24)"/><path class="cls-10" d="M999,740.73V719.27a1.8,1.8,0,0,1,1.17-1.69L1096.76,682a1.79,1.79,0,0,1,2.41,1.68v20.45a1.78,1.78,0,0,1-1.19,1.68l-62.92,22.47a1.8,1.8,0,0,0,0,3.38L1098,754.16a1.78,1.78,0,0,1,1.19,1.68v20.45a1.79,1.79,0,0,1-2.41,1.68l-96.59-35.55A1.8,1.8,0,0,1,999,740.73Z" transform="translate(-201.47 -75.24)"/><path class="cls-10" d="M1199,622.45h25.34a1.79,1.79,0,0,1,1.66,2.45l-83.39,211.51a1.79,1.79,0,0,1-1.67,1.14h-25.34a1.79,1.79,0,0,1-1.66-2.45l83.39-211.51A1.79,1.79,0,0,1,1199,622.45Z" transform="translate(-201.47 -75.24)"/><path class="cls-10" d="M1240.83,776.29V755.84a1.78,1.78,0,0,1,1.19-1.68l62.92-22.47a1.8,1.8,0,0,0,0-3.38L1242,705.84a1.78,1.78,0,0,1-1.19-1.68V683.71a1.79,1.79,0,0,1,2.41-1.68l96.59,35.55a1.8,1.8,0,0,1,1.17,1.69v21.46a1.8,1.8,0,0,1-1.17,1.69L1243.24,778A1.79,1.79,0,0,1,1240.83,776.29Z" transform="translate(-201.47 -75.24)"/><path class="cls-10" d="M1356,871.66H983.09a7,7,0,0,1-7-7h0a7,7,0,0,1,7-7H1356a7,7,0,0,1,7,7h0A7,7,0,0,1,1356,871.66Z" transform="translate(-201.47 -75.24)"/><path class="cls-10" d="M1356,904.77H983.09a7,7,0,0,1-7-7h0a7,7,0,0,1,7-7H1356a7,7,0,0,1,7,7h0A7,7,0,0,1,1356,904.77Z" transform="translate(-201.47 -75.24)"/><rect class="cls-10" x="774.6" y="848.6" width="200.81" height="14.05" rx="7.02"/></svg>